<svg width="582" height="582" viewBox="0 0 582 582" fill="none" xmlns="http://www.w3.org/2000/svg">
<g clip-path="url(#clip0_1300_1829)">
<path d="M486.835 473.457C480.432 478.348 473.707 482.804 466.707 486.794C415.249 517.713 348.61 533.912 290.701 533.912C197.508 533.912 114.161 499.55 50.9168 442.053C45.5091 437.64 49.9953 431.238 56.3246 434.706C124.467 474.476 208.809 498.532 296.133 498.532C351.059 498.532 410.302 488.25 466.732 466.134C470.66 464.654 475.074 462.642 478.929 461.235C487.829 457.234 495.662 467.128 486.835 473.457Z" fill="#F2941B"/>
<path d="M533.419 442.077C533.419 459.707 523.598 493.657 501.555 512.305C497.141 515.7 492.703 513.785 494.643 508.838C501.07 493.124 515.789 456.773 508.878 448.407C504.028 442.053 483.901 442.514 466.732 443.993C463.981 444.341 461.353 444.624 458.868 444.891C454.255 445.387 450.136 445.83 446.653 446.539C441.73 446.952 440.711 442.587 445.658 439.192C452.012 434.705 458.875 431.311 466.756 428.813C494.643 420.471 526.896 425.491 531.503 430.826C532.376 431.844 533.443 434.706 533.443 442.053L533.419 442.077Z" fill="#F2941B"/>
<path fill-rule="evenodd" clip-rule="evenodd" d="M329.84 153.115C322.42 142.614 309.64 136.309 291.816 137.304C272.465 138.371 251.683 151.053 246.372 174.309C245.353 179.644 242.225 184.882 235.799 186.022L176.726 178.504C172.506 177.534 166.104 174.309 168.19 165.87C180.873 99.134 237.909 75.8782 291.816 72.75H304.499C334.084 72.75 372.084 81.2132 396.407 103.402C423.316 128.521 423.088 161.503 422.839 197.604V197.61V197.615C422.815 201.103 422.791 204.62 422.791 208.162V303.392C422.791 330.113 432.912 342.915 443.767 356.645L443.77 356.649C444.518 357.595 445.27 358.546 446.022 359.506C449.175 364.817 450.242 371.073 444.931 375.39C433.291 385.939 411.126 404.951 398.444 415.5C394.224 418.725 386.61 419.064 383.651 416.591C368.196 403.644 362.409 395.466 354.315 384.025C352.63 381.643 350.845 379.121 348.852 376.384C328.725 397.506 311.847 409.17 291.744 415.5C277.606 419.088 263.067 420.848 248.482 420.738C197.799 420.738 157.641 389.14 157.641 326.648C157.641 276.959 184.074 243.179 223.116 227.198C262.159 211.193 318.904 206.101 337.188 206.004L337.212 205.98C337.212 203.46 337.222 201.044 337.232 198.723C337.318 177.789 337.372 164.597 329.84 153.115ZM291.816 258.966C305.518 255.74 321.401 254.649 337.188 254.649C337.188 257.496 337.194 260.226 337.199 262.851L337.199 262.884C337.268 295.998 337.301 312.298 325.621 331.885C318.2 346.751 308.064 354.899 291.816 359.409C289.367 360.112 286.554 360.501 283.353 360.501C260.122 360.501 246.372 342.507 246.372 316.075C246.372 282.27 266.475 266.313 291.816 258.966Z" fill="black"/>
</g>
<defs>
<clipPath id="clip0_1300_1829">
<rect width="582" height="582" fill="white"/>
</clipPath>
</defs>
</svg>
