<svg width="34" height="36" viewBox="0 0 34 36" fill="none" xmlns="http://www.w3.org/2000/svg">
<path fill-rule="evenodd" clip-rule="evenodd" d="M16.6888 0.777832C17.1511 0.777832 17.6131 0.851942 18.0574 0.999261L31.5615 5.47704C32.5499 5.80477 33.2222 6.73457 33.2222 7.7759V28.0397C33.2222 29.081 32.5499 30.0108 31.5615 30.3385L18.0574 34.8163C17.1688 35.111 16.2089 35.111 15.3203 34.8163L1.81623 30.3385C0.827816 30.0108 0.15551 29.081 0.15551 28.0397V7.7759C0.15551 6.73457 0.827816 5.80477 1.81623 5.47704L15.3203 0.999261C15.7646 0.851942 16.2266 0.777832 16.6888 0.777832ZM16.6888 2.35243C16.3939 2.35243 16.0989 2.3999 15.8154 2.4939L3.44618 6.59494L16.6888 10.9866L29.9315 6.59494L17.5623 2.4939C17.2787 2.3999 16.9838 2.35243 16.6888 2.35243ZM31.6337 7.68979L17.4761 12.3859V33.3432C17.5046 33.3348 17.534 33.3311 17.5623 33.3217L31.0663 28.8439C31.4163 28.7278 31.6476 28.4084 31.6476 28.0397V7.7759C31.6476 7.74587 31.6367 7.71908 31.6337 7.68979Z" fill="#4C4C4C"/>
</svg>
