<svg width="40" height="29" viewBox="0 0 40 29" fill="none" xmlns="http://www.w3.org/2000/svg">
<path d="M3.95754 0.533203C1.88206 0.533203 0.199951 2.21532 0.199951 4.29072C0.199951 6.36613 1.88206 8.04831 3.95754 8.04831C6.03301 8.04831 7.71512 6.36613 7.71512 4.29072C7.71512 2.21532 6.03294 0.533203 3.95754 0.533203ZM3.95754 10.5534C1.88206 10.5534 0.199951 12.2355 0.199951 14.311C0.199951 16.3864 1.88206 18.0685 3.95754 18.0685C6.03301 18.0685 7.71512 16.3864 7.71512 14.311C7.71512 12.2355 6.03294 10.5534 3.95754 10.5534ZM3.95754 20.5736C1.88206 20.5736 0.199951 22.2557 0.199951 24.3312C0.199951 26.4066 1.88206 28.0888 3.95754 28.0888C6.03301 28.0888 7.71512 26.4066 7.71512 24.3312C7.71512 22.2557 6.03294 20.5736 3.95754 20.5736ZM12.7252 6.79578H36.5231C37.9071 6.79578 39.0281 5.67477 39.0281 4.29072C39.0281 2.90667 37.9071 1.78567 36.5231 1.78567H12.7252C11.3411 1.78567 10.2201 2.90667 10.2201 4.29072C10.2201 5.67477 11.3411 6.79578 12.7252 6.79578ZM36.5231 11.8059H12.7252C11.3411 11.8059 10.2201 12.9269 10.2201 14.311C10.2201 15.6949 11.3411 16.816 12.7252 16.816H36.5231C37.9071 16.816 39.0281 15.6949 39.0281 14.311C39.0282 12.9269 37.9072 11.8059 36.5231 11.8059ZM36.5231 21.8261H12.7252C11.3411 21.8261 10.2201 22.9471 10.2201 24.3311C10.2201 25.7151 11.3411 26.8361 12.7252 26.8361H36.5231C37.9071 26.8361 39.0281 25.7151 39.0281 24.3311C39.0281 22.9471 37.9072 21.8261 36.5231 21.8261Z" fill="#4D4C4C"/>
</svg>
