<svg width="35" height="36" viewBox="0 0 35 36" fill="none" xmlns="http://www.w3.org/2000/svg">
<path d="M0.493069 27.9045C4.85984 31.696 9.64335 35.2204 16.076 35.2222C16.2006 35.2222 16.3271 35.2204 16.4571 35.2169C20.5496 35.1225 25.1782 33.7405 28.772 31.4841L28.7934 31.4699C29.2636 31.1867 29.7355 30.8679 30.1772 30.5117C30.455 30.3069 30.6438 29.9899 30.6438 29.6569C30.6331 29.0639 30.1309 28.6649 29.5895 28.6649C29.4203 28.6632 29.244 28.7023 29.0783 28.7825C28.8949 28.8555 28.7044 28.9392 28.528 29.0158L28.2645 29.1262L27.9261 29.2633V29.2651C24.2307 30.7628 20.3484 31.6426 16.7563 31.7228C16.6245 31.7263 16.4927 31.7263 16.3609 31.7263C10.7119 31.7281 6.10113 29.1066 1.45298 26.5243C1.28913 26.4388 1.12351 26.3943 0.961446 26.3943C0.749519 26.3943 0.537591 26.4726 0.380871 26.6187C0.224152 26.7647 0.131545 26.9784 0.133326 27.1957C0.133326 27.4806 0.282922 27.7389 0.493069 27.9045Z" fill="#4C4C4C"/>
<path d="M34.5709 26.5724C34.5566 26.2126 34.4818 25.9401 34.3305 25.714L34.3162 25.6908L34.2984 25.6677C34.1453 25.5003 33.9992 25.4397 33.8407 25.3685C33.3706 25.1868 32.6831 25.0906 31.8586 25.0889C31.2638 25.0889 30.6066 25.1459 29.9495 25.2883L29.9477 25.2456L29.287 25.4646L29.2763 25.4718L28.9023 25.5929V25.6089C28.4624 25.7905 28.0635 26.0203 27.693 26.2856C27.4615 26.4602 27.2692 26.6881 27.2585 27.0372C27.2532 27.2277 27.3511 27.4486 27.5114 27.5786C27.6717 27.7086 27.8569 27.7513 28.0207 27.7513C28.0617 27.7513 28.0973 27.7495 28.1312 27.7442L28.1596 27.7424L28.1864 27.7371C28.5087 27.6676 28.9824 27.6231 29.5345 27.5447C30.0082 27.4931 30.5104 27.4521 30.945 27.4521C31.2531 27.4521 31.5309 27.4735 31.7214 27.5145C31.8176 27.5358 31.8871 27.559 31.928 27.5804C31.9423 27.5857 31.953 27.5893 31.9565 27.5946C31.9654 27.6213 31.9761 27.689 31.9743 27.7852C31.9815 28.1485 31.8247 28.827 31.6146 29.4859C31.408 30.1466 31.1551 30.8091 30.9895 31.249C30.9485 31.3505 30.9272 31.4627 30.9272 31.5838C30.9218 31.7601 30.9948 31.9738 31.148 32.1181C31.2958 32.2588 31.4899 32.3176 31.652 32.3176H31.6591C31.9031 32.314 32.1097 32.216 32.2896 32.0771C33.9707 30.5634 34.5549 28.1485 34.5798 26.7914L34.5709 26.5724Z" fill="#4C4C4C"/>
<path d="M19.1979 10.3609C18.2095 10.4357 17.068 10.5105 15.9282 10.6618C14.1794 10.8934 12.4323 11.1961 10.988 11.8818C8.17593 13.0215 6.27393 15.4543 6.27393 19.0285C6.27393 23.5164 9.16255 25.7977 12.8134 25.7977C14.0298 25.7977 15.0182 25.6428 15.9282 25.4184C17.3743 24.9607 18.5871 24.1255 20.035 22.6028C20.8702 23.7426 21.0982 24.2768 22.5425 25.4932C22.9218 25.6428 23.3029 25.6428 23.6057 25.4202C24.5211 24.658 26.115 23.2884 26.9484 22.528C27.3313 22.2252 27.253 21.7676 27.0232 21.39C26.1898 20.325 25.3527 19.4114 25.3527 17.3563V10.5122C25.3527 7.62184 25.5807 4.95939 23.4543 2.98437C21.7072 1.38868 18.97 0.777832 16.8418 0.777832H15.93C12.0547 1.00401 7.94976 2.67806 7.03615 7.47047C6.883 8.07953 7.34247 8.30571 7.64522 8.38051L11.8998 8.913C12.3575 8.83642 12.5872 8.45531 12.6602 8.07775C13.0414 6.40371 14.4091 5.56668 15.93 5.4153H16.2363C17.1481 5.4153 18.1347 5.79642 18.6672 6.55686C19.2745 7.47047 19.2015 8.68504 19.2015 9.7518L19.1979 10.3609ZM18.3627 19.4079C17.8302 20.4693 16.9184 21.1531 15.93 21.3864C15.7768 21.3864 15.5506 21.4595 15.3209 21.4595C13.6504 21.4595 12.662 20.1647 12.662 18.2663C12.662 15.83 14.1081 14.6902 15.9318 14.1578C16.9202 13.9316 18.0599 13.8514 19.2015 13.8514V14.765C19.1979 16.5192 19.2727 17.887 18.3627 19.4079Z" fill="#4C4C4C"/>
</svg>
