<svg width="26" height="30" viewBox="0 0 26 30" fill="none" xmlns="http://www.w3.org/2000/svg">
<path d="M20.2822 10.1855C19.8493 8.31771 18.7917 7.0127 17.1094 6.27051C16.1693 5.8623 15.124 5.6582 13.9736 5.6582C11.7718 5.6582 9.95964 6.49316 8.53711 8.16309C7.12695 9.82064 6.42188 12.3193 6.42188 15.6592C6.42188 19.0238 7.1888 21.4049 8.72266 22.8027C10.2565 24.2005 12.0007 24.8994 13.9551 24.8994C15.8724 24.8994 17.4434 24.349 18.668 23.248C19.8926 22.1348 20.6471 20.6813 20.9316 18.8877H14.6045V14.3232H25.9971V29H22.2119L21.6367 25.5859C20.5358 26.8848 19.5462 27.8001 18.668 28.332C17.1589 29.2598 15.3034 29.7236 13.1016 29.7236C9.47721 29.7236 6.50846 28.4681 4.19531 25.957C1.7832 23.4336 0.577148 19.9824 0.577148 15.6035C0.577148 11.1751 1.79557 7.625 4.23242 4.95312C6.66927 2.28125 9.8916 0.945312 13.8994 0.945312C17.3753 0.945312 20.1647 1.82975 22.2676 3.59863C24.3828 5.35514 25.5951 7.55078 25.9043 10.1855H20.2822Z" fill="#4C4C4C"/>
</svg>
