<svg width="30" height="30" viewBox="0 0 30 30" fill="none" xmlns="http://www.w3.org/2000/svg">
                    <path d="M15 0C14.8197 2.41062e-05 14.6411 0.0373233 14.4747 0.109738C14.3083 0.182153 14.1573 0.288246 14.0305 0.421875L0.276989 12.9282C0.191092 12.9943 0.121278 13.0804 0.0731677 13.1798C0.0250577 13.2791 -4.1014e-06 13.3888 5.03443e-10 13.5C5.03444e-10 13.6884 0.0718342 13.8692 0.1997 14.0024C0.327566 14.1357 0.500989 14.2105 0.681818 14.2105H4.09091V25.5789C4.09091 26.3634 4.70182 27 5.45455 27H10.9091C11.6618 27 12.2727 26.3634 12.2727 25.5789V17.0526H17.7273V25.5789C17.7273 26.3634 18.3382 27 19.0909 27H24.5455C25.2982 27 25.9091 26.3634 25.9091 25.5789V14.2105H29.3182C29.499 14.2105 29.6724 14.1357 29.8003 14.0024C29.9282 13.8692 30 13.6884 30 13.5C30 13.3888 29.9749 13.2791 29.9268 13.1798C29.8787 13.0804 29.8089 12.9943 29.723 12.9282L15.9775 0.430201C15.9748 0.427414 15.9721 0.424639 15.9695 0.421875C15.8427 0.288246 15.6917 0.182153 15.5253 0.109738C15.3589 0.0373233 15.1803 2.41062e-05 15 0Z" fill="#0E505C" />
                </svg>