<?xml version="1.0" standalone="no"?>
<!DOCTYPE svg PUBLIC "-//W3C//DTD SVG 20010904//EN"
 "http://www.w3.org/TR/2001/REC-SVG-20010904/DTD/svg10.dtd">
<svg version="1.0" xmlns="http://www.w3.org/2000/svg"
 width="512.000000pt" height="512.000000pt" viewBox="0 0 512.000000 512.000000"
 preserveAspectRatio="xMidYMid meet">

<g transform="translate(0.000000,512.000000) scale(0.100000,-0.100000)"
fill="#000000" stroke="none">
<path d="M765 4788 c-88 -16 -207 -81 -277 -151 -177 -177 -217 -439 -100
-661 89 -169 263 -280 462 -293 l85 -6 123 -291 c67 -160 122 -294 122 -298 0
-3 -42 -29 -94 -57 -385 -208 -656 -576 -743 -1009 -23 -118 -24 -391 0 -518
36 -194 125 -408 240 -571 34 -48 114 -140 179 -204 94 -94 139 -129 235 -187
270 -163 532 -232 828 -218 399 18 767 197 1023 496 47 56 144 190 156 217 1
1 152 -33 336 -75 l334 -77 13 -85 c69 -457 628 -639 952 -310 69 70 115 153
141 256 36 139 24 245 -41 382 -134 280 -481 392 -761 245 -66 -35 -142 -98
-185 -155 l-21 -28 -316 73 c-295 67 -317 73 -313 92 3 11 15 65 28 120 19 84
23 130 23 281 l1 181 279 48 278 49 21 -30 c45 -64 144 -151 208 -183 90 -44
160 -61 258 -61 157 0 282 51 391 160 145 144 200 340 150 534 -25 100 -61
165 -131 241 -108 115 -247 176 -405 177 -162 1 -299 -57 -408 -172 -74 -79
-118 -163 -144 -276 l-17 -78 -265 -47 c-146 -27 -272 -48 -281 -48 -10 -1
-26 23 -45 71 -36 90 -119 231 -183 313 l-49 62 380 354 c210 195 399 369 420
388 l39 34 77 -36 c229 -107 467 -98 677 26 263 154 400 464 339 765 -30 149
-126 310 -245 409 -70 57 -214 127 -306 147 -319 70 -648 -86 -796 -379 -53
-106 -72 -190 -72 -325 1 -137 12 -193 67 -313 18 -40 27 -71 22 -76 -5 -4
-194 -180 -421 -389 -226 -210 -414 -382 -416 -382 -2 0 -35 21 -72 46 -141
94 -342 175 -517 209 -120 23 -305 30 -426 16 -57 -7 -106 -10 -109 -8 -2 3
-63 142 -134 310 l-129 306 50 51 c167 171 205 427 97 643 -110 221 -362 342
-612 295z m210 -327 c47 -21 99 -70 121 -114 9 -16 19 -56 21 -89 20 -218
-249 -344 -405 -188 -46 45 -63 84 -69 152 -7 74 14 133 68 187 68 68 181 90
264 52z m3278 -19 c83 -41 166 -129 198 -209 18 -46 23 -78 24 -154 0 -90 -2
-99 -38 -171 -98 -199 -326 -281 -523 -189 -89 41 -147 99 -192 189 -35 73
-37 81 -37 177 0 87 4 107 27 157 31 67 105 149 166 185 71 42 119 53 218 50
79 -2 100 -7 157 -35z m-2253 -1587 c424 -93 767 -439 857 -865 24 -118 25
-345 0 -460 -33 -154 -113 -327 -206 -448 l-47 -61 -44 67 c-59 90 -187 217
-284 280 -44 28 -84 53 -90 55 -6 2 12 29 39 60 65 73 110 148 143 239 23 64
26 88 26 198 0 110 -3 134 -26 198 -37 104 -83 176 -158 252 -76 75 -148 121
-252 158 -64 23 -88 26 -198 26 -110 0 -134 -3 -198 -26 -104 -37 -176 -83
-252 -158 -75 -76 -121 -148 -158 -252 -23 -64 -26 -88 -26 -198 0 -110 3
-134 26 -198 33 -91 78 -166 143 -239 27 -31 45 -58 39 -60 -6 -2 -46 -27 -90
-55 -97 -63 -236 -201 -288 -285 l-39 -63 -44 58 c-97 124 -176 295 -210 452
-25 117 -25 343 0 460 97 452 454 793 917 876 95 17 318 11 420 -11z m2349
-325 c113 -58 161 -199 107 -315 -40 -88 -118 -137 -216 -137 -97 -1 -176 49
-216 137 -43 90 -27 187 40 262 73 79 191 102 285 53z m-2453 -320 c62 -30
123 -92 155 -155 35 -72 35 -198 0 -270 -32 -63 -93 -124 -156 -156 -41 -20
-65 -24 -135 -24 -70 0 -94 4 -135 24 -178 88 -238 304 -130 468 38 57 105
109 169 129 61 20 172 12 232 -16z m-1 -1025 c39 -8 108 -33 155 -56 104 -52
217 -160 269 -257 18 -35 31 -65 29 -67 -1 -2 -40 -21 -84 -44 -322 -160 -687
-160 -1009 0 -43 22 -81 42 -83 44 -13 12 73 140 138 206 155 155 369 219 585
174z m2440 -84 c118 -54 178 -203 126 -317 -83 -183 -345 -191 -437 -12 -19
36 -29 115 -20 161 8 42 50 107 90 138 63 50 169 63 241 30z"/>
</g>
</svg>
