<?xml version="1.0" encoding="iso-8859-1"?>
<!-- Uploaded to: SVG Repo, www.svgrepo.com, Generator: SVG Repo Mixer Tools -->
<!DOCTYPE svg PUBLIC "-//W3C//DTD SVG 1.1//EN" "http://www.w3.org/Graphics/SVG/1.1/DTD/svg11.dtd">
<svg fill="#000000" version="1.1" id="Capa_1" xmlns="http://www.w3.org/2000/svg" xmlns:xlink="http://www.w3.org/1999/xlink" 
	 width="800px" height="800px" viewBox="0 0 40.167 40.167"
	 xml:space="preserve">
<g>
	<g>
		<path d="M1.5,36.5c0,0,0.329,0,0.735,0c0.406,0,0.735,0.448,0.735,1v1.167c0,0.829,0.671,1.5,1.5,1.5s1.5-0.671,1.5-1.5V37.5
			c0-0.552,0.448-1,1-1h31.697c0.829,0,1.5-0.671,1.5-1.5s-0.671-1.5-1.5-1.5H6.97c-0.552,0-1-0.448-1-1v-31
			c0-0.829-0.671-1.5-1.5-1.5s-1.5,0.671-1.5,1.5v31c0,0.552-0.329,1-0.735,1H1.5C0.671,33.5,0,34.171,0,35S0.672,36.5,1.5,36.5z"/>
		<path d="M14.657,20.875c-2.382,0.891-3.601,3.559-2.716,5.957c0.673,1.799,2.415,3.008,4.335,3.008c0.554,0,1.096-0.098,1.6-0.285
			c0.088-0.033,8.655-3.252,11.277-13.093l2.308-0.004c0.682,0,1.279-0.331,1.6-0.886c0.32-0.555,0.309-1.239-0.033-1.833
			L26.73,2.873c-0.342-0.59-0.928-0.942-1.568-0.942c-0.643,0-1.23,0.354-1.57,0.946l-6.263,10.889
			c-0.34,0.591-0.352,1.274-0.031,1.829c0.321,0.555,0.92,0.886,1.604,0.886h0.334C17.504,19.681,14.756,20.834,14.657,20.875z
			 M22.729,15.994c0.214-0.597,0.136-1.226-0.217-1.727c-0.347-0.493-0.926-0.788-1.557-0.79l4.211-7.32l4.233,7.305l-0.9,0.002
			c-0.997,0.003-1.884,0.713-2.11,1.687c-2.01,8.606-9.479,11.562-9.55,11.589c-0.8,0.3-1.782-0.145-2.085-0.953
			c-0.312-0.846,0.116-1.788,0.992-2.116C15.947,23.589,20.712,21.605,22.729,15.994z"/>
	</g>
</g>
</svg>