<svg width="89" height="89" viewBox="0 0 89 89" fill="none" xmlns="http://www.w3.org/2000/svg">
<path d="M63.8352 11.2176C64.5962 11.5779 65.2781 11.9605 65.8714 12.4842C67.1957 13.6536 67.9704 15.1146 68.194 16.8627C68.7357 21.1088 69.2714 25.3549 69.808 29.601C70.0436 31.461 70.2654 33.3235 70.5148 35.1817C70.6102 35.8928 70.4065 36.4431 69.8922 36.9565C58.6759 48.1556 47.4717 59.3659 36.2622 70.5719C34.2681 72.5651 31.477 72.5685 29.4829 70.5762C22.4379 63.5354 15.3954 56.4922 8.35557 49.448C6.43545 47.5262 6.43545 44.6825 8.35987 42.7572C19.5753 31.5383 30.7951 20.3229 42.0071 9.0997C42.5351 8.57087 43.0974 8.36966 43.8593 8.47113C47.5766 8.96728 51.2999 9.41614 55.0214 9.88305C55.9329 9.99742 56.5279 10.7283 56.4058 11.5762C56.2837 12.424 55.5202 12.9245 54.5958 12.8049C51.2594 12.3767 47.9188 11.9812 44.5867 11.5246C43.9951 11.4437 43.6417 11.6123 43.2453 12.0095C32.3695 22.9043 21.4817 33.7878 10.5964 44.6739C9.84403 45.4263 9.66861 46.171 10.0805 46.9079C10.1768 47.0799 10.3092 47.2381 10.4494 47.3783C17.4996 54.4336 24.5523 61.4863 31.6068 68.5374C32.4005 69.3302 33.3833 69.2958 34.2191 68.4591C41.2117 61.4674 48.2034 54.4749 55.1951 47.4832C59.1772 43.501 63.1576 39.5163 67.1466 35.5402C67.4089 35.2788 67.5344 35.0441 67.4811 34.6468C67.1002 31.7955 66.752 28.9389 66.3925 26.0841C66.0331 23.2293 65.6427 20.3788 65.3228 17.5197C65.0709 15.2659 63.573 13.7396 61.0724 13.6175C60.8196 13.6055 60.6752 13.7405 60.5376 13.9125C60.044 14.5299 59.6192 15.1894 59.2452 15.8876C59.0689 16.217 59.16 16.3408 59.467 16.4973C61.462 17.5128 62.695 19.1096 63.0545 21.3376C63.622 24.8459 61.2117 28.1762 57.7043 28.7454C53.8855 29.3654 50.4185 26.5983 50.1717 22.7349C49.961 19.4312 52.1744 16.5944 55.4978 15.9521C55.9166 15.8713 56.1272 15.6941 56.2932 15.3158C57.6828 12.1437 59.9486 9.79535 63.0536 8.27851C71.1606 4.31789 81.0664 9.30521 82.7329 18.1723C83.9797 24.8089 80.406 31.344 74.1779 33.8179C73.3627 34.1421 72.6654 33.9993 72.2397 33.4206C71.6369 32.602 71.956 31.5469 72.9594 31.1411C74.085 30.6862 75.1393 30.1127 76.0602 29.3233C78.5255 27.2106 79.8729 24.5398 80.0311 21.2817C80.2986 15.7672 76.2347 10.7189 70.4658 9.93551C68.3427 9.64745 65.4914 10.1574 63.8361 11.2167L63.8352 11.2176ZM55.2484 19.0597C55.0455 19.1638 54.9294 19.2154 54.8219 19.2807C53.5046 20.077 52.8786 21.5078 53.1589 23.0762C53.4091 24.4753 54.5657 25.5493 56.11 25.815C57.7464 26.0961 59.3681 25.1675 59.9658 23.6068C60.5539 22.0693 59.9804 20.2627 58.6286 19.3934C58.2529 19.1517 58.1927 19.1904 58.1325 19.6341C57.9889 20.6952 58.0577 21.746 58.2236 22.7976C58.3681 23.7151 57.8728 24.4718 57.0637 24.6085C56.2012 24.7547 55.5064 24.2207 55.3327 23.2869C55.0773 21.9137 55.0309 20.5353 55.2484 19.0597Z" fill="#525252"/>
<path d="M33.4712 83.3685C32.1401 83.3814 31.0162 82.7916 30.0394 81.8113C23.623 75.3794 17.1971 68.9578 10.7737 62.5327C10.1357 61.8947 9.48735 61.2653 8.86135 60.6152C7.16566 58.8541 7.18458 55.9065 8.89317 54.2383C9.5484 53.5977 10.4298 53.5917 11.0326 54.2237C11.5622 54.7792 11.5863 55.5573 11.0936 56.179C10.2922 57.1877 10.3361 57.9358 11.2492 58.849C18.2203 65.8201 25.1914 72.7911 32.1625 79.7631C33.0903 80.6909 33.9725 80.6874 34.9098 79.751C46.0556 68.6052 57.1997 57.4577 68.3541 46.3205C68.7221 45.9533 68.8769 45.6171 68.784 45.0805C68.5923 43.9678 68.4891 42.8397 68.3455 41.7175C68.2371 40.868 68.7393 40.1293 69.5278 39.9866C70.3439 39.8387 71.1109 40.3546 71.2381 41.2248C71.4823 42.8956 71.6844 44.5723 71.8805 46.25C71.9398 46.7539 71.6775 47.146 71.3241 47.4985C68.3498 50.4625 65.3832 53.4334 62.4149 56.4026C53.8934 64.9241 45.3711 73.4446 36.8514 81.9687C35.9348 82.8862 34.8505 83.3789 33.4712 83.3703V83.3685Z" fill="#525252"/>
<path d="M44.9807 35.2841C44.942 36.2188 45.003 37.0228 44.9076 37.8216C44.8698 38.1415 45.0323 38.3229 45.2722 38.4906C46.4459 39.3126 47.6128 40.145 48.7831 40.9714C49.1683 41.2439 49.4572 41.5913 49.6198 42.0359C50.0729 43.2767 49.4504 44.5726 48.1674 44.9939C46.82 45.4359 45.4648 45.8529 44.1053 46.2579C43.7665 46.3594 43.5834 46.5279 43.481 46.8719C43.0812 48.2176 42.6607 49.5573 42.2316 50.8936C41.7596 52.364 40.223 52.9874 38.9228 52.2504C38.6047 52.0699 38.357 51.8145 38.1481 51.5187C37.3441 50.3854 36.5323 49.2563 35.7438 48.1118C35.5503 47.8306 35.3345 47.7206 34.9983 47.7257C33.5941 47.7481 32.1899 47.7404 30.7849 47.7593C29.8373 47.7722 29.109 47.3981 28.6661 46.5589C28.2069 45.6861 28.3222 44.8443 28.9077 44.0601C29.7556 42.9224 30.5957 41.7796 31.4547 40.6506C31.6327 40.4159 31.6577 40.2138 31.5631 39.9421C31.1005 38.617 30.6559 37.285 30.2045 35.9557C29.8923 35.0356 30.0084 34.1869 30.7118 33.493C31.41 32.8042 32.2493 32.6718 33.1753 32.9942C34.5013 33.4551 35.835 33.8928 37.16 34.3563C37.4335 34.4517 37.6338 34.4234 37.866 34.2454C38.9701 33.4018 40.094 32.5832 41.1998 31.7414C41.99 31.1395 42.8387 30.9804 43.7339 31.4301C44.6316 31.8807 45.0073 32.6606 44.9824 33.6538C44.9678 34.2411 44.9798 34.8292 44.9798 35.2832L44.9807 35.2841ZM39.7913 48.7576C39.867 48.5461 39.9186 48.4171 39.9598 48.2855C40.2651 47.3164 40.5841 46.3508 40.8679 45.3757C41.1275 44.4857 41.6951 43.9285 42.5704 43.6602C43.5696 43.3532 44.5662 43.0411 45.5637 42.729C45.6789 42.6928 45.8234 42.7023 45.8922 42.5295C45.7683 42.4375 45.6445 42.3437 45.5181 42.2534C44.6771 41.6575 43.8319 41.0668 42.9935 40.4666C42.3185 39.9834 41.9685 39.3307 41.9806 38.4897C41.996 37.4304 42.0046 36.371 42.0115 35.3116C42.0115 35.1886 42.0743 35.0167 41.9539 34.9513C41.8034 34.8696 41.7011 35.0433 41.5945 35.1224C40.7759 35.7252 39.959 36.3297 39.1498 36.9462C38.4189 37.5026 37.6364 37.6445 36.7662 37.322C36.1892 37.1088 35.6019 36.9222 35.0189 36.7244C34.497 36.5481 33.975 36.3727 33.3869 36.1749C33.7902 37.371 34.1573 38.4837 34.5417 39.5912C34.8323 40.4288 34.724 41.1906 34.1874 41.9C33.5563 42.7333 32.9354 43.5742 32.3129 44.4135C32.2467 44.5029 32.1177 44.5923 32.1598 44.7041C32.2166 44.8555 32.3843 44.7935 32.5038 44.7935C33.6062 44.7935 34.7094 44.7858 35.8118 44.7824C36.5676 44.7806 37.1652 45.1022 37.6184 45.6956C37.8437 45.9914 38.05 46.3018 38.2659 46.6053C38.7594 47.3018 39.253 47.9975 39.793 48.7585L39.7913 48.7576Z" fill="#525252"/>
</svg>

