<svg width="89" height="89" viewBox="0 0 89 89" fill="none" xmlns="http://www.w3.org/2000/svg">
<path d="M21.6025 70.7885C21.6025 68.5378 21.6025 66.2775 21.6025 64.0268C21.6025 63.6017 21.6025 63.6017 22.0179 63.65C23.6021 63.8239 25.1959 63.9978 26.7801 64.1813C28.7313 64.4035 30.6729 64.6353 32.6242 64.8575C33.1168 64.9155 33.5998 64.8768 34.0828 64.7416C37.0579 63.8626 40.0621 63.1188 43.0565 62.3074C45.7709 61.5732 48.4949 60.8777 51.1996 60.1146C52.8127 59.6606 54.7447 60.8294 54.7447 62.8966C54.7447 63.2926 54.6094 63.65 54.4645 64.0074C54.4355 64.0847 54.3389 64.1717 54.4066 64.2393C54.4935 64.3359 54.5901 64.2393 54.6674 64.2006C56.58 63.3603 58.5216 62.5778 60.4535 61.7857C64.2111 60.2402 67.9687 58.6947 71.7262 57.1491C72.2382 56.9366 72.7598 56.7241 73.2718 56.4923C75.0202 55.7002 77.4061 56.6178 78.2368 58.6367C79.0289 60.559 78.1595 62.6551 76.5657 63.5631C74.1894 64.9155 71.8808 66.3837 69.5625 67.823C65.6117 70.2765 61.6319 72.6818 57.6715 75.116C54.5998 76.9996 51.5183 78.8639 48.4562 80.7475C47.4516 81.3658 46.3215 81.53 45.143 81.3368C44.1867 81.1726 43.3077 80.7572 42.4093 80.4191C40.3615 79.6464 38.3137 78.9122 36.2851 78.0815C35.9567 77.9463 35.609 77.9366 35.2612 77.9366C30.9434 77.9366 26.6352 77.9463 22.3174 77.9559C22.1725 77.9559 22.0276 77.9559 21.8827 77.9559C21.6798 77.9559 21.6025 77.869 21.6122 77.6758C21.6122 77.6178 21.6122 77.5599 21.6122 77.5019C21.6122 75.2609 21.6122 73.0102 21.6122 70.7692L21.6025 70.7885Z" fill="#525252"/>
<path d="M45.0341 43.7017C39.5861 43.7017 34.1284 43.7017 28.6804 43.7017C28.1201 43.7017 28.1201 43.7017 28.1201 43.1511C28.1201 37.5195 28.1201 31.8783 28.1201 26.2468C28.1201 24.4018 28.1201 22.5471 28.1201 20.7022C28.1201 20.2578 28.1201 20.2578 28.5741 20.2578C35.616 20.2578 42.6578 20.2578 49.6997 20.2578C53.6505 20.2578 57.6012 20.2578 61.5423 20.2578C61.9674 20.2578 61.9674 20.2578 61.9674 20.7022C61.9674 28.2463 61.9674 35.7808 61.9674 43.325C61.9674 43.7113 61.9674 43.7113 61.5037 43.7113C56.0171 43.7113 50.5207 43.7113 45.0341 43.7113V43.7017ZM45.0341 24.2086C44.6863 24.2086 44.3386 24.2086 43.9908 24.2086C43.817 24.2086 43.7397 24.2665 43.7494 24.4404C43.7494 24.7206 43.73 25.0007 43.7494 25.2808C43.7783 25.5996 43.6528 25.7541 43.3726 25.8894C41.9044 26.5945 41.1799 27.8116 41.1606 29.4055C41.1413 31.3857 42.6675 32.9988 44.6477 33.2113C44.8795 33.2403 45.1017 33.2693 45.3335 33.3079C45.8745 33.4142 46.3188 33.9358 46.3478 34.4961C46.3768 35.1239 45.8938 35.7518 45.2949 35.8774C44.6284 36.0126 43.9715 35.6456 43.788 34.9791C43.7011 34.6699 43.5658 34.5927 43.2664 34.612C42.7834 34.641 42.3004 34.612 41.8174 34.612C40.9964 34.6216 41.093 34.4961 41.2572 35.3365C41.5083 36.6405 42.2714 37.5871 43.4982 38.1281C43.7204 38.2247 43.7977 38.3599 43.7687 38.6014C43.7397 38.9009 43.7687 39.2003 43.759 39.4997C43.759 39.6736 43.8266 39.7412 44.0005 39.7412C44.696 39.7412 45.3915 39.7412 46.0773 39.7412C46.2705 39.7412 46.3381 39.664 46.3285 39.4804C46.3285 39.21 46.3478 38.9395 46.3188 38.669C46.2898 38.3599 46.4057 38.2054 46.6859 38.0798C48.2604 37.3746 49.1974 35.5007 48.8303 33.8199C48.4246 31.9653 46.9177 30.7288 45.0148 30.6998C44.2613 30.6902 43.7107 30.1299 43.7107 29.3668C43.7107 28.623 44.2806 28.0628 45.0341 28.0628C45.6523 28.0628 46.1546 28.4588 46.3285 29.0964C46.3671 29.2412 46.4057 29.3475 46.5796 29.3475C47.2848 29.3475 47.9899 29.3475 48.6854 29.3475C48.84 29.3475 48.9172 29.2799 48.8979 29.1157C48.7047 27.6571 48.0286 26.5366 46.6666 25.899C46.4057 25.7734 46.2995 25.6286 46.3092 25.3484C46.3188 25.0683 46.3092 24.7882 46.3092 24.508C46.3188 24.2762 46.2222 24.2086 46 24.2183C45.6716 24.2279 45.3432 24.2183 45.0148 24.2183L45.0341 24.2086Z" fill="#525252"/>
<path d="M45.5767 8.56194C40.0031 8.60058 35.154 9.95292 30.7106 12.7639C27.8513 14.5702 25.4171 16.8306 23.3886 19.5256C20.7612 23.0224 19.1094 26.9442 18.3463 31.2524C17.9985 33.2422 17.8923 35.2514 17.9985 37.2703C18.1338 40.1102 18.723 42.8535 19.7276 45.5196C19.8628 45.877 19.8628 45.877 20.2106 45.7418C21.2538 45.3457 22.2971 44.9497 23.3403 44.5536C23.5625 44.4667 23.6204 44.5343 23.5818 44.8241C23.4466 45.6838 23.3113 46.5339 23.1761 47.3936C22.8766 49.2965 22.5675 51.1898 22.2681 53.0927C22.1715 53.7013 22.1715 53.7013 21.6595 53.3632C19.148 51.6824 16.5786 50.0789 14.0478 48.4271C14.0091 48.3982 13.9608 48.3788 13.9222 48.3499C13.8546 48.3112 13.7773 48.2629 13.787 48.176C13.787 48.0697 13.8932 48.0794 13.9608 48.0504C14.9847 47.6737 15.999 47.297 17.0229 46.9202C17.361 46.7947 17.361 46.7947 17.2354 46.4469C16.2888 43.9741 15.6996 41.4239 15.4387 38.7965C15.2359 36.797 15.2552 34.7974 15.4677 32.7979C15.7962 29.7455 16.5303 26.8186 17.7764 24.0077C19.0418 21.1388 20.6743 18.5017 22.7414 16.1447C24.258 14.4157 25.9581 12.8894 27.832 11.5468C30.585 9.56654 33.5891 8.08862 36.8348 7.13232C38.7184 6.58172 40.6503 6.21466 42.6112 6.04078C44.0119 5.91521 45.4222 5.87657 46.8228 5.95385C50.6963 6.17602 54.4056 7.07436 57.9217 8.74547C60.5395 9.99156 62.964 11.5371 65.1084 13.4787C67.7069 15.826 69.8996 18.5113 71.5707 21.6024C72.981 24.2105 73.9953 26.9732 74.5942 29.871C74.9226 31.4745 75.1061 33.0973 75.1738 34.7395C75.2317 36.1884 75.1834 37.6277 75.0385 39.067C74.797 41.3756 74.2851 43.6263 73.5123 45.8094C72.6623 48.2243 71.5031 50.475 70.0928 52.6001C69.9769 52.774 69.8996 52.8029 69.7161 52.658C69.1848 52.262 68.6342 51.8949 68.0836 51.5086C67.7745 51.296 67.7842 51.2671 67.987 50.9676C69.0979 49.2675 70.0638 47.4998 70.7593 45.5872C71.3872 43.8485 71.8991 42.0711 72.1793 40.2358C72.4691 38.3328 72.585 36.4106 72.4884 34.4787C72.3628 31.9575 71.9088 29.5136 71.1071 27.1277C69.7837 23.2252 67.6779 19.7961 64.809 16.8402C62.7032 14.6765 60.3173 12.8894 57.6222 11.5178C54.792 10.0785 51.7975 9.20913 48.6678 8.78411C47.5376 8.62956 46.4074 8.59092 45.6057 8.56194H45.5767Z" fill="#525252"/>
<path d="M11.1875 70.5274C11.1875 67.1659 11.1875 63.814 11.1875 60.4525C11.1875 60.2206 11.2455 60.124 11.4966 60.124C13.8825 60.124 16.2685 60.124 18.664 60.124C19.0794 60.124 19.0794 60.124 19.0794 60.5394C19.0794 67.2238 19.0794 73.8986 19.0794 80.5831C19.0794 80.8535 18.9925 80.9695 18.7123 80.9598C16.3071 80.9598 13.9018 80.9598 11.4869 80.9598C11.1972 80.9598 11.1875 80.8052 11.1875 80.5927C11.1875 78.2358 11.1875 75.8788 11.1875 73.5122C11.1875 72.5076 11.1875 71.5127 11.1875 70.5081V70.5274Z" fill="#525252"/>
</svg>