<svg width="89" height="89" viewBox="0 0 89 89" fill="none" xmlns="http://www.w3.org/2000/svg">
<path d="M12.4694 78.499C12.2045 73.9605 11.9272 69.9877 11.7547 66.0149C11.6253 63.1177 11.6992 60.2143 11.5513 57.3171C11.4528 55.4768 12.223 54.8489 13.9236 55.0789C19.8449 55.881 25.8094 55.6758 31.7554 55.8436C32.5502 55.8685 33.5977 55.6634 33.9674 56.5462C34.3617 57.4663 33.3759 57.9699 32.8521 58.5481C28.7608 63.0493 28.8101 63.3291 34.2878 65.9714C48.1885 72.6673 64.295 64.3176 67.9365 48.296C68.6451 45.1936 69.8713 44.3792 72.7673 44.889C74.7698 45.2434 76.8586 45.1253 78.9104 45.2185C82.3178 45.3677 83.1989 46.2692 82.4287 49.6824C80.7158 57.2301 77.9369 64.2493 72.5393 70.0561C58.6633 84.9897 36.5676 86.9046 20.4241 74.377C19.1055 73.3512 18.1381 73.3014 16.9613 74.4641C15.6673 75.7386 14.2686 76.9012 12.4756 78.5052L12.4694 78.499Z" fill="#525252"/>
<path d="M13.5363 44.1554C13.333 44.1554 13.1235 44.1554 12.9201 44.1554C7.88403 44.1554 5.88561 41.6001 6.92487 36.4896C12.1623 10.7071 41.9661 -2.18111 64.0988 11.7702C64.3575 11.9318 64.6225 12.0997 64.8813 12.2614C68.225 14.3379 71.4065 14.0747 74.4257 11.4718C74.8755 11.0801 75.2637 10.4086 75.9476 10.6698C76.6624 10.9433 76.4713 11.7142 76.4898 12.2987C76.6932 17.9811 76.8164 23.6698 77.0875 29.3461C77.2107 31.9573 76.3543 33.1572 73.5815 32.9832C67.9559 32.635 62.3242 32.492 56.6925 32.2371C56.0147 32.206 55.1151 32.3863 54.8132 31.547C54.5174 30.7325 55.2999 30.2787 55.7559 29.7502C55.9592 29.514 56.1872 29.3088 56.409 29.0912C59.9458 25.6407 59.9397 25.2552 55.3677 23.0046C41.2822 16.0787 21.7559 24.1734 20.4435 41.7058C20.308 43.515 19.7226 44.3481 17.8371 44.1803C16.4138 44.0559 14.9658 44.1554 13.5302 44.1554H13.5363Z" fill="#525252"/>
<path d="M41.5745 30.6606C41.5022 29.2132 42.6562 28 44.1054 28V28C45.5547 28 46.7087 29.2132 46.6363 30.6606L46.5391 32.6042C46.4743 33.9011 45.4039 34.9193 44.1054 34.9193V34.9193C42.807 34.9193 41.7366 33.9011 41.6717 32.6042L41.5745 30.6606ZM41.6613 56.1753C41.7321 54.8867 42.7976 53.8781 44.0881 53.8781V53.8781C45.3787 53.8781 46.4442 54.8867 46.515 56.1753L46.5896 57.532C46.6684 58.9674 45.5257 60.1746 44.0881 60.1746V60.1746C42.6505 60.1746 41.5078 58.9674 41.5867 57.532L41.6613 56.1753ZM49.7848 38.9239C48.8151 39.4593 47.6349 39.0446 46.8731 38.2405V38.2405C46.458 37.8023 46.0313 37.4794 45.5931 37.2718C45.1549 37.0642 44.7166 36.9605 44.2784 36.9605C43.8171 36.9605 43.4366 37.0412 43.1367 37.2026C42.86 37.3641 42.6524 37.5601 42.514 37.7908C42.3756 38.0214 42.3064 38.2636 42.3064 38.5173C42.3064 39.0708 42.5601 39.5091 43.0675 39.832C43.575 40.1549 44.2438 40.4432 45.0741 40.6969C45.9275 40.9506 46.8385 41.2619 47.8072 41.631C48.7529 41.9769 49.5947 42.3806 50.3328 42.8418C51.0939 43.3031 51.7512 43.8567 52.3048 44.5025C52.8583 45.1252 53.2735 45.8402 53.5502 46.6474C53.8501 47.4547 54 48.3657 54 49.3806C54 50.972 53.5618 52.3097 52.6853 53.3937C51.8089 54.4778 50.5865 55.2965 49.0181 55.8501C47.4498 56.3806 45.6277 56.6458 43.5519 56.6458C42.0066 56.6458 40.5189 56.369 39.089 55.8155C37.682 55.2389 36.4366 54.5124 35.3526 53.6359C35.1382 53.4589 34.9352 53.2795 34.7435 53.0977C33.5431 51.9598 33.9835 50.1159 35.3195 49.141L35.8912 48.7238C37.1112 47.8335 38.7822 48.1743 39.8501 49.2422V49.2422C40.4267 49.7957 41.0264 50.1993 41.6491 50.453C42.2718 50.7068 42.9638 50.8336 43.7249 50.8336C44.2554 50.8336 44.682 50.7875 45.0049 50.6952C45.3278 50.5799 45.5585 50.4184 45.6969 50.2109C45.8583 49.9802 45.939 49.6919 45.939 49.346C45.939 48.9308 45.7545 48.5964 45.3855 48.3427C45.0165 48.0659 44.486 47.8007 43.7941 47.5469C43.1252 47.2702 42.3064 46.9473 41.3377 46.5783C40.7381 46.3476 40.0461 46.0362 39.2619 45.6441C38.5008 45.229 37.7512 44.71 37.0132 44.0873C36.2982 43.4646 35.6985 42.715 35.2142 41.8385C34.7529 40.939 34.5222 39.8781 34.5222 38.6557C34.5222 37.4333 34.9143 36.3031 35.6985 35.2652C36.5058 34.2043 37.6128 33.3509 39.0198 32.7051C40.4498 32.0593 42.1104 31.7364 44.0016 31.7364C45.8929 31.7364 47.4382 31.967 48.6376 32.4283C49.8369 32.8896 50.8287 33.5124 51.6128 34.2965V34.2965C52.8667 35.5135 52.3581 37.503 50.8285 38.3476L49.7848 38.9239Z" fill="#525252"/>
</svg>
