<svg width="59" height="64" viewBox="0 0 59 64" fill="none" xmlns="http://www.w3.org/2000/svg">
<path d="M51.9293 31.8899C51.9293 22.1664 45.9636 13.5922 36.7799 10.3533C34.8505 9.67072 32.855 9.30505 30.8176 9.15878C30.6052 9.14484 30.5321 9.20753 30.5286 9.41649C30.5216 10.1374 30.5007 10.8583 30.4868 11.5792C30.4868 11.7673 30.4763 11.9553 30.3858 12.126C30.1942 12.4986 29.8704 12.6031 29.4838 12.3523C28.8047 11.9135 28.143 11.4503 27.4882 10.9732C25.6773 9.65679 23.8733 8.33688 22.0762 7.00651C21.331 6.45626 21.3275 6.0662 22.0658 5.5264C24.4549 3.7816 26.8091 1.99153 29.2504 0.316386C29.5151 0.13529 29.7903 -0.122425 30.1559 0.065637C30.5529 0.267629 30.5773 0.650718 30.5738 1.03729C30.5704 1.50048 30.5843 1.96019 30.5704 2.42338C30.5634 2.70895 30.6609 2.82736 30.9639 2.84826C38.8103 3.41941 45.4133 6.58511 50.7174 12.3976C54.5204 16.5663 56.8328 21.4838 57.8602 27.0212C58.2538 29.1491 58.414 31.2909 58.2677 33.4396C57.9299 38.3432 56.5264 42.9159 53.9632 47.1333C52.0825 50.2224 49.6691 52.8205 46.8203 55.0076C44.8004 56.5573 42.5715 57.7902 40.2172 58.7758C39.5938 59.037 39.3884 58.9917 39.1167 58.3892C38.4655 56.9404 37.964 55.4324 37.4311 53.9384C37.2849 53.5309 37.4311 53.221 37.8038 53.0364C38.2809 52.7996 38.7859 52.6115 39.256 52.3642C43.8531 49.9334 47.4611 46.5204 49.7144 41.7736C50.9437 39.179 51.6786 36.4521 51.8597 33.579C51.8945 33.0182 51.9293 32.4575 51.9328 31.8934L51.9293 31.8899ZM29.1251 2.1378C28.9579 2.24576 28.8674 2.29452 28.7907 2.35372C27.3594 3.40548 25.9315 4.46071 24.5001 5.51246C24.2564 5.69356 24.0126 5.87118 23.7618 6.04182C23.5424 6.19158 23.5564 6.3065 23.7688 6.46322C25.4683 7.68562 27.1609 8.91499 28.8534 10.1444C29.0693 10.3011 29.1251 10.221 29.1216 9.99809C29.1216 9.56624 29.1216 9.13091 29.1216 8.69907C29.1251 7.84234 29.3863 7.58115 30.2534 7.62294C30.9883 7.66125 31.7266 7.68911 32.451 7.80752C36.3585 8.44832 40.0257 9.716 43.2715 12.0528C46.9561 14.7066 49.7039 18.1161 51.4731 22.2952C53.0577 26.0391 53.7612 29.9431 53.3502 34.0073C52.9845 37.6118 51.9641 41.0213 50.1009 44.1452C48.3666 47.0532 46.2213 49.599 43.4247 51.5493C42.1571 52.4339 40.8197 53.207 39.4232 53.8687C39.1167 54.015 39.0262 54.1613 39.1725 54.5026C39.4894 55.2304 39.754 55.9792 40.0396 56.7175C40.259 57.2887 40.2625 57.2922 40.8302 57.031C44.6053 55.2896 47.8128 52.7787 50.4562 49.606C55.5303 43.5184 57.4423 36.4382 56.6518 28.6162C56.2164 24.3082 54.6841 20.3554 52.3054 16.737C50.289 13.6723 47.7432 11.1299 44.7342 9.02992C41.175 6.54681 37.2361 5.04928 32.949 4.43633C31.9634 4.29703 30.9639 4.31792 29.9748 4.19255C29.3793 4.11593 29.139 3.85822 29.1286 3.25572C29.1216 2.91094 29.1286 2.56965 29.1286 2.13432L29.1251 2.1378Z" fill="#525252"/>
<path d="M29.1251 2.1378C28.9579 2.24576 28.8674 2.29452 28.7907 2.35372C27.3594 3.40548 25.9315 4.46071 24.5001 5.51246C24.2564 5.69356 24.0126 5.87118 23.7618 6.04182C23.5424 6.19158 23.5564 6.3065 23.7688 6.46322C25.4683 7.68562 27.1609 8.91499 28.8534 10.1444C29.0693 10.3011 29.1251 10.221 29.1216 9.99809V8.69907C29.1251 7.84234 29.3863 7.58115 30.2534 7.62294C30.9883 7.66125 31.7266 7.68911 32.451 7.80752C36.3585 8.44832 40.0257 9.716 43.2715 12.0528C46.9561 14.7066 49.7039 18.1161 51.4731 22.2952C53.0577 26.0391 53.7612 29.9431 53.3502 34.0073C52.9845 37.6118 51.9641 41.0213 50.1009 44.1452C48.3666 47.0532 46.2213 49.599 43.4247 51.5493C42.1571 52.4339 40.8197 53.207 39.4232 53.8687C39.1167 54.015 39.0262 54.1613 39.1725 54.5026C39.4894 55.2304 39.754 55.9792 40.0396 56.7175C40.259 57.2887 40.2625 57.2922 40.8302 57.031C44.6053 55.2896 47.8128 52.7787 50.4562 49.606C55.5303 43.5184 57.4423 36.4382 56.6518 28.6162C56.2164 24.3082 54.6841 20.3554 52.3054 16.737C50.289 13.6723 47.7432 11.1299 44.7342 9.02992C41.175 6.54681 37.2361 5.04928 32.949 4.43633C31.9634 4.29703 30.9639 4.31792 29.9748 4.19255C29.3793 4.11593 29.139 3.85822 29.1286 3.25572C29.1216 2.91094 29.1286 2.56965 29.1286 2.13432L29.1251 2.1378Z" fill="#525252"/>
<path d="M27.7389 53.1865C27.7389 52.8417 27.7354 52.4934 27.7389 52.1487C27.7459 51.8109 27.8643 51.5322 28.1847 51.3651C28.4842 51.2084 28.7454 51.3094 28.9927 51.4835C31.4479 53.2387 33.9136 54.9766 36.2957 56.8293C36.9783 57.3587 36.9748 57.7069 36.2957 58.2293C33.9763 60.0194 31.5802 61.712 29.2051 63.4254C28.8986 63.6483 28.5713 63.9478 28.1464 63.704C27.7354 63.4672 27.7285 63.0493 27.7354 62.6349C27.7389 62.2448 27.7215 61.8547 27.7424 61.4647C27.7563 61.1652 27.6762 61.0224 27.3454 60.998C25.5274 60.8761 23.7339 60.5801 21.9786 60.1065C16.6607 58.6681 12.0671 56.0039 8.22923 52.0303C5.63816 49.3486 3.6252 46.2944 2.2008 42.8605C1.11422 40.2346 0.410732 37.4868 0.139087 34.6589C-0.439029 28.6827 0.793821 23.0618 3.67395 17.8065C5.10531 15.1945 6.86752 12.8228 9.05461 10.7925C11.475 8.54966 14.188 6.72825 17.1935 5.35609C17.5069 5.2133 17.8169 5.04962 18.1408 4.93469C18.6736 4.75012 18.907 4.85459 19.1299 5.37699C19.4259 6.08048 19.7045 6.79442 19.9796 7.50836C20.2338 8.17005 20.4672 8.83524 20.7144 9.49694C20.9861 10.2353 20.8712 10.5382 20.1537 10.8795C18.8756 11.4855 17.594 12.095 16.4239 12.896C11.1442 16.5144 7.79042 21.4563 6.70036 27.7668C5.5894 34.1922 6.83618 40.1824 10.7576 45.4829C13.9616 49.8153 18.2 52.678 23.4448 53.9875C24.716 54.3044 26.0185 54.4925 27.3245 54.6387C27.6135 54.6701 27.7598 54.59 27.7424 54.2696C27.725 53.9109 27.7389 53.5487 27.7389 53.1865ZM29.1842 61.6144C29.3165 61.5483 29.3827 61.5274 29.4349 61.4856C31.1066 60.2005 32.8201 58.9746 34.537 57.7522C34.833 57.5398 34.7007 57.4353 34.4917 57.2855C33.2206 56.3592 31.9529 55.4293 30.6817 54.4994C30.2116 54.1547 29.7379 53.8099 29.1842 53.4024C29.1842 54.0711 29.1877 54.6283 29.1842 55.1855C29.1772 55.8925 28.8812 56.1746 28.1708 56.1711C26.9692 56.1641 25.7886 55.9726 24.6115 55.7358C19.7323 54.7537 15.4383 52.6397 11.9243 49.077C9.28447 46.3989 7.32026 43.2854 6.13965 39.6913C5.03914 36.3375 4.58292 32.9141 4.98342 29.4106C5.37696 25.9767 6.39389 22.7274 8.14913 19.7289C10.0089 16.5597 12.3805 13.8607 15.4557 11.8129C16.5632 11.0746 17.7124 10.4163 18.9313 9.87654C19.1194 9.79296 19.3144 9.73027 19.1995 9.44121C18.8443 8.56011 18.4995 7.66856 18.1512 6.78397C18.0711 6.57849 17.9492 6.52626 17.7472 6.62725C17.4756 6.76307 17.1935 6.87452 16.9219 7.01034C12.0288 9.47604 8.12823 12.997 5.34562 17.7473C3.74012 20.4881 2.58737 23.3822 2.00229 26.513C1.38239 29.8215 1.27791 33.137 1.83513 36.4525C2.8033 42.2058 5.41527 47.1337 9.47949 51.3024C12.0427 53.9318 15.0169 55.9587 18.4055 57.3761C20.9617 58.4453 23.6015 59.201 26.3737 59.4378C27.0354 59.4935 27.6971 59.5318 28.3553 59.598C28.9334 59.6537 29.1668 59.9219 29.1772 60.5035C29.1842 60.8483 29.1772 61.193 29.1772 61.6214L29.1842 61.6144Z" fill="#525252"/>
<path d="M29.1842 61.6144C29.3165 61.5483 29.3827 61.5274 29.4349 61.4856C31.1066 60.2005 32.8201 58.9746 34.537 57.7522C34.833 57.5398 34.7007 57.4353 34.4917 57.2855C33.2206 56.3592 31.9529 55.4293 30.6817 54.4994C30.2116 54.1547 29.7379 53.8099 29.1842 53.4024C29.1842 54.0711 29.1877 54.6283 29.1842 55.1855C29.1772 55.8925 28.8812 56.1746 28.1708 56.1711C26.9692 56.1641 25.7886 55.9726 24.6115 55.7358C19.7323 54.7537 15.4383 52.6397 11.9243 49.077C9.28447 46.3989 7.32026 43.2854 6.13965 39.6913C5.03914 36.3375 4.58292 32.9141 4.98342 29.4106C5.37696 25.9767 6.39389 22.7274 8.14913 19.7289C10.0089 16.5597 12.3805 13.8607 15.4557 11.8129C16.5632 11.0746 17.7124 10.4163 18.9313 9.87654C19.1194 9.79296 19.3144 9.73027 19.1995 9.44121C18.8443 8.56011 18.4995 7.66856 18.1512 6.78397C18.0711 6.57849 17.9492 6.52626 17.7472 6.62725C17.4756 6.76307 17.1935 6.87452 16.9219 7.01034C12.0288 9.47604 8.12823 12.997 5.34562 17.7473C3.74012 20.4881 2.58737 23.3822 2.00229 26.513C1.38239 29.8215 1.27791 33.137 1.83513 36.4525C2.8033 42.2058 5.41527 47.1337 9.47949 51.3024C12.0427 53.9318 15.0169 55.9587 18.4055 57.3761C20.9617 58.4453 23.6015 59.201 26.3737 59.4378C27.0354 59.4935 27.6971 59.5318 28.3553 59.598C28.9334 59.6537 29.1668 59.9219 29.1772 60.5035C29.1842 60.8483 29.1772 61.193 29.1772 61.6214L29.1842 61.6144Z" fill="#525252"/>
<path d="M29.1875 18.688C32.7537 18.688 36.32 18.688 39.8827 18.688C41.516 18.688 42.3519 19.5134 42.3519 21.1328C42.3519 28.307 42.3519 35.4812 42.3519 42.6554C42.3519 44.2331 41.4951 45.0828 39.9071 45.0828C32.7328 45.0828 25.5586 45.0828 18.3844 45.0828C16.8312 45.0828 15.957 44.2191 15.957 42.6763C15.957 35.4882 15.957 28.3 15.957 21.1119C15.957 19.5134 16.7894 18.6915 18.4053 18.688C21.9994 18.688 25.5935 18.688 29.1875 18.688ZM29.1388 43.6375C32.7642 43.6375 36.3861 43.6375 40.0115 43.6375C40.729 43.6375 40.9066 43.4564 40.9066 42.739C40.9066 35.5509 40.9066 28.3592 40.9066 21.1711C40.9066 20.3596 40.6837 20.1402 39.8792 20.1368C38.117 20.1368 36.3548 20.1507 34.5961 20.1263C34.1677 20.1193 34.0249 20.2273 34.0284 20.6766C34.0528 22.8114 34.0423 24.9498 34.0353 27.0881C34.0353 27.9344 33.5443 28.213 32.8304 27.7881C31.9597 27.2727 31.0438 26.8199 30.2462 26.2105C29.4487 25.601 28.8253 25.6358 28.0417 26.2244C27.2477 26.8199 26.3527 27.2727 25.4925 27.7811C24.8447 28.1642 24.3153 27.8682 24.2805 27.109C24.2735 26.9662 24.277 26.8199 24.277 26.6771C24.277 24.6851 24.277 22.693 24.277 20.7009C24.277 20.3271 24.0843 20.1402 23.6989 20.1402C21.9228 20.1402 20.1466 20.1402 18.3705 20.1402C17.5521 20.1402 17.4093 20.283 17.4093 21.0945C17.4093 28.2826 17.4093 35.4742 17.4093 42.6624C17.4093 43.4843 17.573 43.641 18.4053 43.6445C21.9855 43.6445 25.5656 43.6445 29.1457 43.6445L29.1388 43.6375ZM29.198 20.1333C28.188 20.1333 27.1781 20.1437 26.1716 20.1263C25.8477 20.1228 25.7084 20.2029 25.7119 20.5616C25.7293 22.1915 25.7188 23.8179 25.7223 25.4478C25.7223 25.5592 25.6736 25.709 25.7711 25.7751C25.9034 25.8622 26.0079 25.7229 26.1124 25.6567C26.9412 25.1308 27.7701 24.6119 28.585 24.0652C28.9577 23.8144 29.2781 23.8144 29.6577 24.0582C30.5179 24.6119 31.4025 25.1274 32.2662 25.6741C32.5413 25.8518 32.597 25.7891 32.597 25.4896C32.5901 23.8458 32.5831 22.202 32.6005 20.5582C32.604 20.2029 32.4682 20.1193 32.1443 20.1228C31.1657 20.1402 30.1836 20.1298 29.2049 20.1298L29.198 20.1333Z" fill="#525252"/>
<path d="M29.1388 43.6375H40.0115C40.729 43.6375 40.9066 43.4564 40.9066 42.739V21.1711C40.9066 20.3596 40.6837 20.1402 39.8792 20.1368C38.117 20.1368 36.3548 20.1507 34.5961 20.1263C34.1677 20.1193 34.0249 20.2273 34.0284 20.6766C34.0528 22.8114 34.0423 24.9498 34.0353 27.0881C34.0353 27.9344 33.5443 28.213 32.8304 27.7881C31.9597 27.2727 31.0438 26.8199 30.2462 26.2105C29.4487 25.601 28.8253 25.6358 28.0417 26.2244C27.2477 26.8199 26.3527 27.2727 25.4925 27.7811C24.8447 28.1642 24.3153 27.8682 24.2805 27.109C24.2735 26.9662 24.277 26.8199 24.277 26.6771V20.7009C24.277 20.3271 24.0843 20.1402 23.6989 20.1402H18.3705C17.5521 20.1402 17.4093 20.283 17.4093 21.0945V42.6624C17.4093 43.4843 17.573 43.641 18.4053 43.6445H29.1457L29.1388 43.6375Z" fill="#525252"/>
<path d="M22.8839 41.6207C22.0481 41.6207 21.2123 41.6242 20.3765 41.6207C19.6904 41.6138 19.4292 41.3595 19.4222 40.6804C19.4153 39.9038 19.4153 39.1237 19.4222 38.3471C19.4292 37.6784 19.6799 37.4102 20.3277 37.4068C22.0412 37.3963 23.7581 37.3963 25.4715 37.4068C26.1541 37.4102 26.4049 37.6819 26.4084 38.3645C26.4153 39.1272 26.4153 39.8934 26.4084 40.6561C26.4049 41.3561 26.1402 41.6138 25.4332 41.6207C24.5835 41.6277 23.7337 41.6207 22.8839 41.6207ZM22.8735 40.1754C23.2775 40.1754 23.678 40.1789 24.082 40.1754C25.085 40.1615 24.9422 40.3322 24.9735 39.2769C24.984 38.9147 24.8342 38.8416 24.5138 38.8451C23.5944 38.859 22.6715 38.8451 21.7521 38.852C20.7526 38.8625 20.8919 38.6918 20.8605 39.7506C20.8501 40.1128 20.9998 40.1929 21.3202 40.1824C21.8357 40.165 22.3546 40.1789 22.8735 40.1789V40.1754Z" fill="#525252"/>
</svg>
