<svg width="74" height="60" viewBox="0 0 74 60" fill="none" xmlns="http://www.w3.org/2000/svg">
<path d="M36.9358 59.4484C27.9672 59.4484 19.0006 59.4505 10.032 59.4484C4.92937 59.4464 0.985309 56.1617 0.091734 51.1639C0.0116203 50.714 0.0034035 50.2456 0.0034035 49.7876C-0.000704889 38.7421 -0.000704889 27.6988 0.00134931 16.6575C0.00134931 13.7467 1.13321 11.3227 3.30861 9.41438C5.98522 7.06644 8.69882 4.75957 11.4062 2.44655C13.3105 0.821679 15.5167 0 18.0331 0C30.6376 0.00616259 43.2442 0.00821679 55.8509 0C58.396 0 60.6207 0.825787 62.5434 2.47325C65.2283 4.77395 67.9234 7.06233 70.5815 9.39179C72.7569 11.2981 73.9052 13.7159 73.9093 16.6267C73.9175 27.6947 73.9237 38.7647 73.9093 49.8328C73.9031 55.0812 69.5626 59.43 64.3018 59.4423C55.1812 59.4649 46.0585 59.4484 36.9379 59.4505L36.9358 59.4484ZM36.9995 15.9385C26.7531 15.9385 16.5048 15.9385 6.25843 15.9385C5.09576 15.9385 5.03002 15.9899 5.02797 17.1341C5.02386 27.8672 5.03002 38.6025 5.02181 49.3356C5.01975 52.4519 7.38619 54.3623 10.0505 54.354C27.9836 54.3047 45.9147 54.3047 63.8478 54.354C66.6046 54.3623 68.8868 52.3882 68.8847 49.35C68.8786 38.6168 68.8847 27.8816 68.8806 17.1484C68.8806 15.9981 68.8087 15.9406 67.6625 15.9406C57.4408 15.9406 47.2191 15.9406 36.9974 15.9406L36.9995 15.9385ZM64.1375 10.7558C64.0512 10.3511 63.7492 10.2135 63.5274 10.0224C62.2866 8.95013 60.9884 7.93947 59.8031 6.80966C58.4946 5.56276 57.0197 5.08208 55.214 5.08824C43.197 5.13344 31.1799 5.14576 19.1629 5.08003C17.0573 5.0677 15.3257 5.56071 13.8055 7.03973C12.4929 8.31744 11.0406 9.45136 9.52666 10.7537H64.1354L64.1375 10.7558Z" fill="#525252"/>
<path d="M44.1401 27.3619C44.4442 27.6885 44.6434 27.8877 44.8242 28.0993C45.6767 29.1018 45.6438 30.5048 44.7544 31.46C43.8587 32.4214 42.3119 32.6186 41.3505 31.7147C39.5223 29.9974 37.7475 28.2185 36.0302 26.3902C35.1366 25.4391 35.2023 24.0505 36.1103 23.1056C37.7783 21.3698 39.4792 19.6648 41.2191 17.9988C42.2092 17.0519 43.7416 17.1463 44.6948 18.1015C45.6582 19.067 45.6972 20.5255 44.7811 21.5752C44.6147 21.7662 44.4339 21.947 44.1093 22.2942C45.0871 22.2942 45.9047 22.3106 46.7223 22.2901C48.495 22.2449 50.1754 22.6228 51.7961 23.3274C56.7118 25.4638 59.7664 30.7903 59.1091 36.1004C58.4394 41.5112 54.3207 45.8969 49.0374 46.8295C48.4047 46.9404 47.772 47.0061 47.129 47.0041C44.9516 46.9959 42.7741 47.0082 40.5967 47C39.0293 46.9938 37.8831 45.9092 37.9016 44.4672C37.918 43.0395 39.0375 41.9857 40.5638 41.9775C42.5358 41.9693 44.5078 41.9919 46.4819 41.9693C49.8077 41.9323 52.4145 40.2232 53.5628 37.3658C55.3848 32.826 52.2953 27.8364 47.4228 27.4214C46.3792 27.3331 45.3398 27.3085 44.1422 27.3598L44.1401 27.3619Z" fill="#525252"/>
<path d="M28.2482 41.8953C27.6032 41.1969 27.0752 40.5786 27.0629 39.6809C27.0485 38.6024 27.4717 37.7705 28.4454 37.3062C29.4293 36.8379 30.4236 36.92 31.2452 37.6616C32.2148 38.5367 33.1125 39.4878 34.041 40.4101C34.7312 41.0962 35.4358 41.772 36.1014 42.4807C37.3585 43.8221 37.3709 45.1656 36.0911 46.4885C34.6141 48.0189 33.0981 49.5123 31.5842 51.0057C30.4338 52.1437 28.8357 52.2279 27.8024 51.2357C26.7733 50.2477 26.8184 48.6865 27.9133 47.4539C27.9955 47.3595 28.0756 47.2629 28.1968 47.115C27.823 46.9096 27.4655 47.0041 27.1307 47.0041C20.8202 46.9774 15.619 42.3904 14.8035 36.123C13.9694 29.6995 18.5318 23.5205 24.945 22.4667C27.408 22.062 29.9059 22.2962 32.3874 22.3291C33.6322 22.3455 34.571 23.578 34.5443 24.8824C34.5176 26.1786 33.5192 27.2674 32.2333 27.3023C30.6454 27.3454 29.0555 27.29 27.4676 27.3249C24.2425 27.3947 21.7857 28.7423 20.4278 31.7599C18.4476 36.1538 21.4385 41.3366 26.2248 41.8542C26.8534 41.922 27.4799 42.0535 28.2502 41.8932L28.2482 41.8953Z" fill="#525252"/>
</svg>
