<svg width="89" height="89" viewBox="0 0 89 89" fill="none" xmlns="http://www.w3.org/2000/svg">
<path d="M68.4346 74.3995C60.7034 74.3898 54.2623 68.0755 54.3326 60.3481C54.4087 51.9551 61.2323 46.1951 68.4834 46.242C76.2849 46.2908 82.5874 52.5855 82.566 60.3949C82.5445 68.1165 76.1932 74.4093 68.4346 74.3995ZM60.9747 58.2713C60.395 58.3338 59.8505 58.527 59.5499 59.1028C59.2044 59.7625 59.2356 60.4359 59.6767 61.0332C61.5837 63.6194 63.4867 66.2076 65.4366 68.7586C66.2447 69.8146 67.6149 69.7443 68.2941 68.624C70.7495 64.5758 73.6773 60.918 77.1028 57.6506C77.9577 56.8347 78.0006 55.8842 77.3136 55.16C76.6851 54.4944 75.6311 54.5374 74.7898 55.2849C71.9362 57.8224 69.5374 60.756 67.3533 63.8731C66.7385 64.7515 66.6292 64.7632 65.9968 63.9122C64.8354 62.3507 63.6702 60.7911 62.5186 59.2199C62.1341 58.6948 61.6696 58.3338 60.9747 58.2732V58.2713Z" fill="#525252"/>
<path d="M8.6493 49.002C8.6493 39.8185 8.6493 30.633 8.6493 21.4495C8.6493 17.0149 11.8659 13.7768 16.3103 13.7377C18.4183 13.7202 20.5282 13.7592 22.6362 13.7221C23.4423 13.7085 23.7312 14.0129 23.7195 14.8034C23.6726 17.8932 24.0454 17.4463 21.1059 17.4794C19.484 17.497 17.862 17.4619 16.24 17.4912C13.8607 17.5361 12.2953 19.1171 12.2934 21.51C12.2856 39.879 12.2836 58.2479 12.2934 76.6169C12.2934 79.0684 13.9446 80.7021 16.4118 80.7041C32.6023 80.7138 48.7908 80.7099 64.9813 80.706C66.6443 80.706 67.9403 80.0307 68.6918 78.5063C68.9377 78.0066 69.2793 77.7919 69.8122 77.7333C70.5519 77.6533 71.2916 77.5421 72.0216 77.3976C72.6462 77.2727 72.7243 77.5264 72.6755 78.0788C72.3886 81.2935 69.047 84.3111 65.6333 84.3423C62.1629 84.3755 58.6906 84.3521 55.2182 84.3521C42.2736 84.3521 29.3271 84.3521 16.3825 84.3521C11.8698 84.3501 8.65126 81.1471 8.6493 76.652C8.64735 67.4353 8.6493 58.2187 8.6493 49.002Z" fill="#525252"/>
<path d="M40.6526 19.1047C36.9246 19.1047 33.1947 19.1086 29.4666 19.1047C27.7354 19.1027 27.0464 18.4449 27.0229 16.7039C26.9937 14.4983 26.9937 12.2927 27.0229 10.0871C27.0464 8.27964 27.7802 7.58478 29.6072 7.56916C30.9364 7.55745 32.2656 7.54574 33.5948 7.57502C34.1979 7.58868 34.5141 7.35055 34.7815 6.80794C35.976 4.39154 37.9103 3.05061 40.6409 3.01157C43.4281 2.97253 45.3897 4.31541 46.6038 6.77085C46.8907 7.35055 47.2459 7.58673 47.8803 7.57307C49.2407 7.54379 50.6051 7.54379 51.9655 7.57307C53.646 7.6121 54.3214 8.30892 54.3272 9.9719C54.337 12.2419 54.337 14.5119 54.3272 16.7819C54.3214 18.4215 53.6558 19.0968 52.0319 19.0988C48.2375 19.1066 44.4451 19.1008 40.6507 19.1008L40.6526 19.1047ZM40.6995 12.2126C42.2727 12.2185 43.4965 11.0161 43.4848 9.47223C43.473 7.97125 42.1692 6.65374 40.7053 6.6635C39.1751 6.67326 37.9474 7.91659 37.9376 9.46637C37.9279 11.0513 39.0873 12.2068 40.6995 12.2126Z" fill="#525252"/>
<path d="M72.8201 31.7404C72.8201 35.242 72.7967 38.7436 72.8357 42.2453C72.8455 43.1373 72.5683 43.4496 71.7095 43.1939C71.5553 43.147 71.3972 43.108 71.2372 43.0807C69.8032 42.8412 69.0862 42.0078 69.0862 40.5803C69.0862 34.3871 69.0862 28.1958 69.0862 22.0025C69.0862 21.3565 69.1116 20.7045 68.8969 20.078C68.3758 18.5653 67.0153 17.5328 65.3621 17.5015C63.1917 17.4625 61.0193 17.4625 58.8469 17.4937C58.0232 17.5054 57.6855 17.2341 57.707 16.3714C57.7831 13.2914 57.3127 13.7793 60.3322 13.7384C61.8234 13.7188 63.3146 13.7305 64.8059 13.7364C69.5722 13.752 72.8123 16.9765 72.8221 21.7234C72.8279 25.063 72.8221 28.4027 72.8221 31.7423L72.8201 31.7404Z" fill="#525252"/>
<path d="M40.7136 28.7373C46.3603 28.7373 52.005 28.7373 57.6517 28.7373C58.9301 28.7373 59.5293 29.0769 59.5352 29.7874C59.5391 30.5076 58.9164 30.9117 57.6809 30.9117C46.3251 30.9175 34.9674 30.9175 23.6116 30.9078C23.2622 30.9078 22.8953 30.8512 22.5654 30.736C22.0833 30.5681 21.8666 30.1719 21.9174 29.6605C21.9642 29.1804 22.259 28.8837 22.7137 28.7978C23.0612 28.7314 23.4242 28.7373 23.7794 28.7373C29.4261 28.7334 35.0708 28.7354 40.7175 28.7354L40.7136 28.7373Z" fill="#525252"/>
<path d="M40.7334 42.8682C35.0906 42.8682 29.4459 42.8682 23.8031 42.8682C23.4791 42.8682 23.1512 42.8838 22.8311 42.8389C22.2885 42.7647 21.9332 42.4602 21.9157 41.8825C21.8981 41.2618 22.2514 40.9222 22.8369 40.8265C23.0907 40.7855 23.3542 40.7992 23.6138 40.7992C34.9969 40.7992 46.382 40.7992 57.7651 40.7992C58.0247 40.7992 58.2882 40.7855 58.5419 40.8246C59.1236 40.9104 59.5237 41.2442 59.5198 41.8454C59.514 42.4407 59.1392 42.794 58.5361 42.8506C58.214 42.8799 57.8881 42.8682 57.5641 42.8682C51.9525 42.8682 46.3429 42.8682 40.7314 42.8682H40.7334Z" fill="#525252"/>
<path d="M37.2561 66.9998C32.7844 66.9998 28.3147 66.9998 23.843 66.9998C23.4878 66.9998 23.1228 67.0174 22.7773 66.9511C22.2952 66.8574 21.9556 66.5665 21.9146 66.0356C21.8697 65.4657 22.1664 65.1046 22.6836 64.9445C22.9569 64.8587 23.2575 64.8313 23.5464 64.8313C32.5209 64.8255 41.4955 64.8255 50.47 64.8294C50.9892 64.8294 51.4928 64.8235 51.7621 65.4442C52.3457 66.7929 52.2306 67.0018 50.7667 67.0018C46.2638 67.0018 41.759 67.0018 37.2561 67.0018V66.9998Z" fill="#525252"/>
<path d="M37.533 52.8587C42.1393 52.8587 46.7476 52.8509 51.354 52.8724C51.7131 52.8724 52.2635 52.5972 52.4002 53.2315C52.5095 53.7371 51.7873 54.8496 51.3442 54.9121C51.0885 54.9472 50.827 54.9316 50.5674 54.9316C41.6455 54.9316 32.7237 54.9355 23.8018 54.9257C23.023 54.9257 22.0569 55.1326 21.9241 53.9342C21.8363 53.1476 22.3789 52.8587 23.8116 52.8587C28.3867 52.8587 32.9598 52.8587 37.5349 52.8587H37.533Z" fill="#525252"/>
</svg>
