<svg width="486" height="293" viewBox="0 0 486 293" fill="none" xmlns="http://www.w3.org/2000/svg">
<g filter="url(#filter0_d_2587_2585)">
<rect x="11.1621" y="17" width="429" height="237" rx="20" fill="url(#paint0_linear_2587_2585)"/>
</g>
<g filter="url(#filter1_d_2587_2585)">
<path fill-rule="evenodd" clip-rule="evenodd" d="M31 17C19.9543 17 11 25.9543 11 37V234C11 245.046 19.9543 254 31 254H166.802C164.587 250.171 160.447 247.595 155.705 247.595H88.5905C85.0529 247.595 82.1851 244.727 82.1851 241.189C82.1851 237.652 85.0529 234.784 88.5905 234.784H123.899C130.974 234.784 136.71 229.048 136.71 221.973C136.71 214.898 130.974 209.162 123.899 209.162H88.5905C85.0529 209.162 82.1851 206.294 82.1851 202.757C82.1851 199.219 85.0529 196.351 88.5905 196.351H257.182C264.257 196.351 269.993 190.616 269.993 183.541C269.993 176.465 264.257 170.73 257.182 170.73H88.5905C85.0529 170.73 82.1851 167.862 82.1851 164.324C82.1851 160.787 85.0529 157.919 88.5905 157.919H305.649C312.724 157.919 318.459 152.183 318.459 145.108C318.459 138.033 312.724 132.297 305.649 132.297H88.5905C85.0529 132.297 82.1851 129.429 82.1851 125.892C82.1851 122.354 85.0529 119.486 88.5905 119.486H176.909C183.985 119.486 189.72 113.751 189.72 106.676C189.72 99.6005 183.985 93.8649 176.909 93.8649H88.5905C85.0529 93.8649 82.1851 90.9971 82.1851 87.4595C82.1851 83.9219 85.0529 81.0541 88.5905 81.0541H226.89C233.966 81.0541 239.701 75.3185 239.701 68.2432C239.701 61.168 233.966 55.4324 226.89 55.4324H88.5905C85.0529 55.4324 82.1851 52.5646 82.1851 49.027C82.1851 45.4894 85.0529 42.6216 88.5905 42.6216H129.957C137.033 42.6216 142.768 36.886 142.768 29.8108C142.768 22.7356 137.033 17 129.957 17H31Z" fill="white" fill-opacity="0.04" shape-rendering="crispEdges"/>
</g>
<g filter="url(#filter2_d_2587_2585)">
<path d="M50.7541 211H43.2981V209.624L47.0261 206.264C47.5701 205.773 48.0181 205.272 48.3701 204.76C48.7221 204.237 48.8981 203.688 48.8981 203.112V202.92C48.8981 202.248 48.7221 201.731 48.3701 201.368C48.0181 200.995 47.4954 200.808 46.8021 200.808C46.1194 200.808 45.5914 200.984 45.2181 201.336C44.8554 201.677 44.5834 202.136 44.4021 202.712L43.2021 202.264C43.3088 201.933 43.4528 201.613 43.6341 201.304C43.8261 200.984 44.0661 200.701 44.3541 200.456C44.6421 200.211 44.9888 200.013 45.3941 199.864C45.8101 199.715 46.2901 199.64 46.8341 199.64C47.3888 199.64 47.8794 199.72 48.3061 199.88C48.7434 200.04 49.1061 200.264 49.3941 200.552C49.6928 200.84 49.9168 201.181 50.0661 201.576C50.2261 201.971 50.3061 202.403 50.3061 202.872C50.3061 203.299 50.2421 203.699 50.1141 204.072C49.9968 204.445 49.8261 204.803 49.6021 205.144C49.3888 205.485 49.1274 205.821 48.8181 206.152C48.5194 206.472 48.1834 206.792 47.8101 207.112L44.6901 209.832H50.7541V211ZM60.3479 211H52.8919V209.624L56.6199 206.264C57.1639 205.773 57.6119 205.272 57.9639 204.76C58.3159 204.237 58.4919 203.688 58.4919 203.112V202.92C58.4919 202.248 58.3159 201.731 57.9639 201.368C57.6119 200.995 57.0892 200.808 56.3959 200.808C55.7132 200.808 55.1852 200.984 54.8119 201.336C54.4492 201.677 54.1772 202.136 53.9959 202.712L52.7959 202.264C52.9025 201.933 53.0465 201.613 53.2279 201.304C53.4199 200.984 53.6599 200.701 53.9479 200.456C54.2359 200.211 54.5825 200.013 54.9879 199.864C55.4039 199.715 55.8839 199.64 56.4279 199.64C56.9825 199.64 57.4732 199.72 57.8999 199.88C58.3372 200.04 58.6999 200.264 58.9879 200.552C59.2865 200.84 59.5105 201.181 59.6599 201.576C59.8199 201.971 59.8999 202.403 59.8999 202.872C59.8999 203.299 59.8359 203.699 59.7079 204.072C59.5905 204.445 59.4199 204.803 59.1959 205.144C58.9825 205.485 58.7212 205.821 58.4119 206.152C58.1132 206.472 57.7772 206.792 57.4039 207.112L54.2839 209.832H60.3479V211ZM69.9416 211H62.4856V209.624L66.2136 206.264C66.7576 205.773 67.2056 205.272 67.5576 204.76C67.9096 204.237 68.0856 203.688 68.0856 203.112V202.92C68.0856 202.248 67.9096 201.731 67.5576 201.368C67.2056 200.995 66.6829 200.808 65.9896 200.808C65.3069 200.808 64.7789 200.984 64.4056 201.336C64.0429 201.677 63.7709 202.136 63.5896 202.712L62.3896 202.264C62.4963 201.933 62.6403 201.613 62.8216 201.304C63.0136 200.984 63.2536 200.701 63.5416 200.456C63.8296 200.211 64.1763 200.013 64.5816 199.864C64.9976 199.715 65.4776 199.64 66.0216 199.64C66.5763 199.64 67.0669 199.72 67.4936 199.88C67.9309 200.04 68.2936 200.264 68.5816 200.552C68.8803 200.84 69.1043 201.181 69.2536 201.576C69.4136 201.971 69.4936 202.403 69.4936 202.872C69.4936 203.299 69.4296 203.699 69.3016 204.072C69.1843 204.445 69.0136 204.803 68.7896 205.144C68.5763 205.485 68.3149 205.821 68.0056 206.152C67.7069 206.472 67.3709 206.792 66.9976 207.112L63.8776 209.832H69.9416V211ZM72.3034 211V209.832H75.5034V200.824H75.3914L72.5754 203.448L71.7914 202.6L74.7514 199.832H76.8474V209.832H79.7914V211H72.3034ZM92.6109 206.808V205.464H97.2509V206.808H92.6109ZM114.118 211.192C113.436 211.192 112.849 211.064 112.358 210.808C111.868 210.541 111.462 210.163 111.142 209.672C110.822 209.181 110.588 208.579 110.438 207.864C110.289 207.149 110.214 206.333 110.214 205.416C110.214 204.509 110.289 203.699 110.438 202.984C110.588 202.259 110.822 201.651 111.142 201.16C111.462 200.669 111.868 200.296 112.358 200.04C112.849 199.773 113.436 199.64 114.118 199.64C114.801 199.64 115.388 199.773 115.878 200.04C116.369 200.296 116.774 200.669 117.094 201.16C117.414 201.651 117.649 202.259 117.798 202.984C117.948 203.699 118.022 204.509 118.022 205.416C118.022 206.333 117.948 207.149 117.798 207.864C117.649 208.579 117.414 209.181 117.094 209.672C116.774 210.163 116.369 210.541 115.878 210.808C115.388 211.064 114.801 211.192 114.118 211.192ZM114.118 210.024C114.566 210.024 114.95 209.939 115.27 209.768C115.59 209.587 115.846 209.336 116.038 209.016C116.241 208.696 116.39 208.312 116.486 207.864C116.582 207.405 116.63 206.893 116.63 206.328V204.504C116.63 203.949 116.582 203.443 116.486 202.984C116.39 202.525 116.241 202.136 116.038 201.816C115.846 201.496 115.59 201.251 115.27 201.08C114.95 200.899 114.566 200.808 114.118 200.808C113.67 200.808 113.286 200.899 112.966 201.08C112.646 201.251 112.385 201.496 112.182 201.816C111.99 202.136 111.846 202.525 111.75 202.984C111.654 203.443 111.606 203.949 111.606 204.504V206.328C111.606 206.893 111.654 207.405 111.75 207.864C111.846 208.312 111.99 208.696 112.182 209.016C112.385 209.336 112.646 209.587 112.966 209.768C113.286 209.939 113.67 210.024 114.118 210.024ZM114.118 206.36C113.745 206.36 113.484 206.285 113.334 206.136C113.196 205.987 113.126 205.805 113.126 205.592V205.24C113.126 205.027 113.196 204.845 113.334 204.696C113.484 204.547 113.745 204.472 114.118 204.472C114.492 204.472 114.748 204.547 114.886 204.696C115.036 204.845 115.11 205.027 115.11 205.24V205.592C115.11 205.805 115.036 205.987 114.886 206.136C114.748 206.285 114.492 206.36 114.118 206.36ZM123.712 211.192C123.029 211.192 122.443 211.064 121.952 210.808C121.461 210.541 121.056 210.163 120.736 209.672C120.416 209.181 120.181 208.579 120.032 207.864C119.883 207.149 119.808 206.333 119.808 205.416C119.808 204.509 119.883 203.699 120.032 202.984C120.181 202.259 120.416 201.651 120.736 201.16C121.056 200.669 121.461 200.296 121.952 200.04C122.443 199.773 123.029 199.64 123.712 199.64C124.395 199.64 124.981 199.773 125.472 200.04C125.963 200.296 126.368 200.669 126.688 201.16C127.008 201.651 127.243 202.259 127.392 202.984C127.541 203.699 127.616 204.509 127.616 205.416C127.616 206.333 127.541 207.149 127.392 207.864C127.243 208.579 127.008 209.181 126.688 209.672C126.368 210.163 125.963 210.541 125.472 210.808C124.981 211.064 124.395 211.192 123.712 211.192ZM123.712 210.024C124.16 210.024 124.544 209.939 124.864 209.768C125.184 209.587 125.44 209.336 125.632 209.016C125.835 208.696 125.984 208.312 126.08 207.864C126.176 207.405 126.224 206.893 126.224 206.328V204.504C126.224 203.949 126.176 203.443 126.08 202.984C125.984 202.525 125.835 202.136 125.632 201.816C125.44 201.496 125.184 201.251 124.864 201.08C124.544 200.899 124.16 200.808 123.712 200.808C123.264 200.808 122.88 200.899 122.56 201.08C122.24 201.251 121.979 201.496 121.776 201.816C121.584 202.136 121.44 202.525 121.344 202.984C121.248 203.443 121.2 203.949 121.2 204.504V206.328C121.2 206.893 121.248 207.405 121.344 207.864C121.44 208.312 121.584 208.696 121.776 209.016C121.979 209.336 122.24 209.587 122.56 209.768C122.88 209.939 123.264 210.024 123.712 210.024ZM123.712 206.36C123.339 206.36 123.077 206.285 122.928 206.136C122.789 205.987 122.72 205.805 122.72 205.592V205.24C122.72 205.027 122.789 204.845 122.928 204.696C123.077 204.547 123.339 204.472 123.712 204.472C124.085 204.472 124.341 204.547 124.48 204.696C124.629 204.845 124.704 205.027 124.704 205.24V205.592C124.704 205.805 124.629 205.987 124.48 206.136C124.341 206.285 124.085 206.36 123.712 206.36ZM136.522 201H131.53L131.21 205.272H131.322C131.599 204.899 131.909 204.605 132.25 204.392C132.591 204.168 133.061 204.056 133.658 204.056C134.149 204.056 134.597 204.136 135.002 204.296C135.418 204.445 135.775 204.669 136.074 204.968C136.373 205.267 136.607 205.629 136.778 206.056C136.949 206.472 137.034 206.952 137.034 207.496C137.034 208.04 136.949 208.541 136.778 209C136.607 209.448 136.357 209.837 136.026 210.168C135.695 210.488 135.295 210.739 134.826 210.92C134.357 211.101 133.823 211.192 133.226 211.192C132.757 211.192 132.335 211.139 131.962 211.032C131.599 210.925 131.274 210.781 130.986 210.6C130.709 210.419 130.463 210.216 130.25 209.992C130.037 209.768 129.845 209.533 129.674 209.288L130.682 208.52C130.831 208.744 130.981 208.947 131.13 209.128C131.29 209.309 131.471 209.469 131.674 209.608C131.877 209.736 132.106 209.837 132.362 209.912C132.618 209.987 132.917 210.024 133.258 210.024C134.026 210.024 134.613 209.816 135.018 209.4C135.434 208.984 135.642 208.408 135.642 207.672V207.544C135.642 206.808 135.434 206.232 135.018 205.816C134.602 205.4 134.005 205.192 133.226 205.192C132.693 205.192 132.277 205.283 131.978 205.464C131.69 205.645 131.423 205.869 131.178 206.136L130.042 205.976L130.442 199.832H136.522V201ZM140.868 211L145.236 200.984H140.34V203.064H139.14V199.832H146.596V201.016L142.308 211H140.868ZM159.767 206.808V205.464H164.407V206.808H159.767ZM182.523 211V208.808H177.019V207.624L181.851 199.832H183.803V207.704H185.467V208.808H183.803V211H182.523ZM178.219 207.704H182.523V200.872H182.459L178.219 207.704ZM190.884 211.192C190.298 211.192 189.77 211.096 189.3 210.904C188.831 210.701 188.431 210.419 188.1 210.056C187.78 209.683 187.53 209.229 187.348 208.696C187.178 208.163 187.092 207.565 187.092 206.904C187.092 206.072 187.215 205.293 187.46 204.568C187.716 203.832 188.036 203.165 188.42 202.568C188.815 201.96 189.252 201.427 189.732 200.968C190.212 200.499 190.682 200.12 191.14 199.832H192.868C192.26 200.269 191.716 200.696 191.236 201.112C190.767 201.528 190.351 201.965 189.988 202.424C189.626 202.872 189.322 203.357 189.076 203.88C188.831 204.392 188.628 204.973 188.468 205.624L188.548 205.656C188.815 205.197 189.167 204.819 189.604 204.52C190.042 204.211 190.607 204.056 191.3 204.056C191.791 204.056 192.239 204.136 192.644 204.296C193.05 204.456 193.402 204.685 193.7 204.984C193.999 205.283 194.228 205.645 194.388 206.072C194.559 206.499 194.644 206.973 194.644 207.496C194.644 208.04 194.554 208.541 194.372 209C194.191 209.448 193.935 209.837 193.604 210.168C193.284 210.488 192.89 210.739 192.42 210.92C191.962 211.101 191.45 211.192 190.884 211.192ZM190.868 210.056C191.636 210.056 192.228 209.848 192.644 209.432C193.071 209.016 193.284 208.429 193.284 207.672V207.544C193.284 206.787 193.071 206.2 192.644 205.784C192.228 205.368 191.636 205.16 190.868 205.16C190.1 205.16 189.503 205.368 189.076 205.784C188.66 206.2 188.452 206.787 188.452 207.544V207.672C188.452 208.429 188.66 209.016 189.076 209.432C189.503 209.848 190.1 210.056 190.868 210.056ZM200.462 211.192C199.811 211.192 199.241 211.112 198.75 210.952C198.259 210.781 197.849 210.552 197.518 210.264C197.198 209.976 196.953 209.635 196.782 209.24C196.622 208.845 196.542 208.419 196.542 207.96C196.542 207.192 196.75 206.584 197.166 206.136C197.582 205.688 198.131 205.373 198.814 205.192V205.064C198.217 204.861 197.742 204.536 197.39 204.088C197.049 203.629 196.878 203.08 196.878 202.44C196.878 201.587 197.193 200.909 197.822 200.408C198.451 199.896 199.331 199.64 200.462 199.64C201.593 199.64 202.473 199.896 203.102 200.408C203.731 200.909 204.046 201.587 204.046 202.44C204.046 203.08 203.87 203.629 203.518 204.088C203.177 204.536 202.707 204.861 202.11 205.064V205.192C202.793 205.373 203.342 205.688 203.758 206.136C204.174 206.584 204.382 207.192 204.382 207.96C204.382 208.419 204.297 208.845 204.126 209.24C203.966 209.635 203.721 209.976 203.39 210.264C203.059 210.552 202.649 210.781 202.158 210.952C201.678 211.112 201.113 211.192 200.462 211.192ZM200.462 210.056C201.251 210.056 201.87 209.88 202.318 209.528C202.766 209.176 202.99 208.68 202.99 208.04V207.688C202.99 207.048 202.766 206.552 202.318 206.2C201.881 205.848 201.262 205.672 200.462 205.672C199.662 205.672 199.038 205.848 198.59 206.2C198.153 206.552 197.934 207.048 197.934 207.688V208.04C197.934 208.68 198.158 209.176 198.606 209.528C199.054 209.88 199.673 210.056 200.462 210.056ZM200.462 204.584C201.187 204.584 201.737 204.429 202.11 204.12C202.494 203.811 202.686 203.368 202.686 202.792V202.568C202.686 201.992 202.489 201.549 202.094 201.24C201.71 200.931 201.166 200.776 200.462 200.776C199.758 200.776 199.209 200.931 198.814 201.24C198.43 201.549 198.238 201.992 198.238 202.568V202.792C198.238 203.368 198.425 203.811 198.798 204.12C199.182 204.429 199.737 204.584 200.462 204.584ZM210.056 211.192C209.373 211.192 208.787 211.064 208.296 210.808C207.805 210.541 207.4 210.163 207.08 209.672C206.76 209.181 206.525 208.579 206.376 207.864C206.227 207.149 206.152 206.333 206.152 205.416C206.152 204.509 206.227 203.699 206.376 202.984C206.525 202.259 206.76 201.651 207.08 201.16C207.4 200.669 207.805 200.296 208.296 200.04C208.787 199.773 209.373 199.64 210.056 199.64C210.739 199.64 211.325 199.773 211.816 200.04C212.307 200.296 212.712 200.669 213.032 201.16C213.352 201.651 213.587 202.259 213.736 202.984C213.885 203.699 213.96 204.509 213.96 205.416C213.96 206.333 213.885 207.149 213.736 207.864C213.587 208.579 213.352 209.181 213.032 209.672C212.712 210.163 212.307 210.541 211.816 210.808C211.325 211.064 210.739 211.192 210.056 211.192ZM210.056 210.024C210.504 210.024 210.888 209.939 211.208 209.768C211.528 209.587 211.784 209.336 211.976 209.016C212.179 208.696 212.328 208.312 212.424 207.864C212.52 207.405 212.568 206.893 212.568 206.328V204.504C212.568 203.949 212.52 203.443 212.424 202.984C212.328 202.525 212.179 202.136 211.976 201.816C211.784 201.496 211.528 201.251 211.208 201.08C210.888 200.899 210.504 200.808 210.056 200.808C209.608 200.808 209.224 200.899 208.904 201.08C208.584 201.251 208.323 201.496 208.12 201.816C207.928 202.136 207.784 202.525 207.688 202.984C207.592 203.443 207.544 203.949 207.544 204.504V206.328C207.544 206.893 207.592 207.405 207.688 207.864C207.784 208.312 207.928 208.696 208.12 209.016C208.323 209.336 208.584 209.587 208.904 209.768C209.224 209.939 209.608 210.024 210.056 210.024ZM210.056 206.36C209.683 206.36 209.421 206.285 209.272 206.136C209.133 205.987 209.064 205.805 209.064 205.592V205.24C209.064 205.027 209.133 204.845 209.272 204.696C209.421 204.547 209.683 204.472 210.056 204.472C210.429 204.472 210.685 204.547 210.824 204.696C210.973 204.845 211.048 205.027 211.048 205.24V205.592C211.048 205.805 210.973 205.987 210.824 206.136C210.685 206.285 210.429 206.36 210.056 206.36ZM226.923 206.808V205.464H231.563V206.808H226.923ZM252.223 211H244.767V209.624L248.495 206.264C249.039 205.773 249.487 205.272 249.839 204.76C250.191 204.237 250.367 203.688 250.367 203.112V202.92C250.367 202.248 250.191 201.731 249.839 201.368C249.487 200.995 248.964 200.808 248.271 200.808C247.588 200.808 247.06 200.984 246.687 201.336C246.324 201.677 246.052 202.136 245.871 202.712L244.671 202.264C244.778 201.933 244.922 201.613 245.103 201.304C245.295 200.984 245.535 200.701 245.823 200.456C246.111 200.211 246.458 200.013 246.863 199.864C247.279 199.715 247.759 199.64 248.303 199.64C248.858 199.64 249.348 199.72 249.775 199.88C250.212 200.04 250.575 200.264 250.863 200.552C251.162 200.84 251.386 201.181 251.535 201.576C251.695 201.971 251.775 202.403 251.775 202.872C251.775 203.299 251.711 203.699 251.583 204.072C251.466 204.445 251.295 204.803 251.071 205.144C250.858 205.485 250.596 205.821 250.287 206.152C249.988 206.472 249.652 206.792 249.279 207.112L246.159 209.832H252.223V211ZM258.025 211.192C257.342 211.192 256.755 211.064 256.265 210.808C255.774 210.541 255.369 210.163 255.049 209.672C254.729 209.181 254.494 208.579 254.345 207.864C254.195 207.149 254.121 206.333 254.121 205.416C254.121 204.509 254.195 203.699 254.345 202.984C254.494 202.259 254.729 201.651 255.049 201.16C255.369 200.669 255.774 200.296 256.265 200.04C256.755 199.773 257.342 199.64 258.025 199.64C258.707 199.64 259.294 199.773 259.785 200.04C260.275 200.296 260.681 200.669 261.001 201.16C261.321 201.651 261.555 202.259 261.705 202.984C261.854 203.699 261.929 204.509 261.929 205.416C261.929 206.333 261.854 207.149 261.705 207.864C261.555 208.579 261.321 209.181 261.001 209.672C260.681 210.163 260.275 210.541 259.785 210.808C259.294 211.064 258.707 211.192 258.025 211.192ZM258.025 210.024C258.473 210.024 258.857 209.939 259.177 209.768C259.497 209.587 259.753 209.336 259.945 209.016C260.147 208.696 260.297 208.312 260.393 207.864C260.489 207.405 260.537 206.893 260.537 206.328V204.504C260.537 203.949 260.489 203.443 260.393 202.984C260.297 202.525 260.147 202.136 259.945 201.816C259.753 201.496 259.497 201.251 259.177 201.08C258.857 200.899 258.473 200.808 258.025 200.808C257.577 200.808 257.193 200.899 256.873 201.08C256.553 201.251 256.291 201.496 256.089 201.816C255.897 202.136 255.753 202.525 255.657 202.984C255.561 203.443 255.513 203.949 255.513 204.504V206.328C255.513 206.893 255.561 207.405 255.657 207.864C255.753 208.312 255.897 208.696 256.089 209.016C256.291 209.336 256.553 209.587 256.873 209.768C257.193 209.939 257.577 210.024 258.025 210.024ZM258.025 206.36C257.651 206.36 257.39 206.285 257.241 206.136C257.102 205.987 257.033 205.805 257.033 205.592V205.24C257.033 205.027 257.102 204.845 257.241 204.696C257.39 204.547 257.651 204.472 258.025 204.472C258.398 204.472 258.654 204.547 258.793 204.696C258.942 204.845 259.017 205.027 259.017 205.24V205.592C259.017 205.805 258.942 205.987 258.793 206.136C258.654 206.285 258.398 206.36 258.025 206.36ZM267.618 211.192C266.968 211.192 266.397 211.112 265.906 210.952C265.416 210.781 265.005 210.552 264.674 210.264C264.354 209.976 264.109 209.635 263.938 209.24C263.778 208.845 263.698 208.419 263.698 207.96C263.698 207.192 263.906 206.584 264.322 206.136C264.738 205.688 265.288 205.373 265.97 205.192V205.064C265.373 204.861 264.898 204.536 264.546 204.088C264.205 203.629 264.034 203.08 264.034 202.44C264.034 201.587 264.349 200.909 264.978 200.408C265.608 199.896 266.488 199.64 267.618 199.64C268.749 199.64 269.629 199.896 270.258 200.408C270.888 200.909 271.202 201.587 271.202 202.44C271.202 203.08 271.026 203.629 270.674 204.088C270.333 204.536 269.864 204.861 269.266 205.064V205.192C269.949 205.373 270.498 205.688 270.914 206.136C271.33 206.584 271.538 207.192 271.538 207.96C271.538 208.419 271.453 208.845 271.282 209.24C271.122 209.635 270.877 209.976 270.546 210.264C270.216 210.552 269.805 210.781 269.314 210.952C268.834 211.112 268.269 211.192 267.618 211.192ZM267.618 210.056C268.408 210.056 269.026 209.88 269.474 209.528C269.922 209.176 270.146 208.68 270.146 208.04V207.688C270.146 207.048 269.922 206.552 269.474 206.2C269.037 205.848 268.418 205.672 267.618 205.672C266.818 205.672 266.194 205.848 265.746 206.2C265.309 206.552 265.09 207.048 265.09 207.688V208.04C265.09 208.68 265.314 209.176 265.762 209.528C266.21 209.88 266.829 210.056 267.618 210.056ZM267.618 204.584C268.344 204.584 268.893 204.429 269.266 204.12C269.65 203.811 269.842 203.368 269.842 202.792V202.568C269.842 201.992 269.645 201.549 269.25 201.24C268.866 200.931 268.322 200.776 267.618 200.776C266.914 200.776 266.365 200.931 265.97 201.24C265.586 201.549 265.394 201.992 265.394 202.568V202.792C265.394 203.368 265.581 203.811 265.954 204.12C266.338 204.429 266.893 204.584 267.618 204.584ZM280.988 203.928C280.988 204.76 280.86 205.544 280.604 206.28C280.359 207.005 280.039 207.672 279.644 208.28C279.249 208.877 278.812 209.411 278.332 209.88C277.863 210.339 277.399 210.712 276.94 211H275.212C275.82 210.563 276.359 210.136 276.828 209.72C277.308 209.304 277.729 208.872 278.092 208.424C278.455 207.965 278.759 207.48 279.004 206.968C279.249 206.445 279.452 205.859 279.612 205.208L279.532 205.176C279.255 205.635 278.897 206.019 278.46 206.328C278.033 206.627 277.473 206.776 276.78 206.776C276.289 206.776 275.836 206.696 275.42 206.536C275.015 206.376 274.663 206.147 274.364 205.848C274.076 205.549 273.847 205.192 273.676 204.776C273.516 204.349 273.436 203.869 273.436 203.336C273.436 202.792 273.521 202.296 273.692 201.848C273.873 201.389 274.129 201 274.46 200.68C274.791 200.349 275.185 200.093 275.644 199.912C276.113 199.731 276.631 199.64 277.196 199.64C277.783 199.64 278.311 199.741 278.78 199.944C279.249 200.136 279.644 200.419 279.964 200.792C280.295 201.155 280.545 201.603 280.716 202.136C280.897 202.669 280.988 203.267 280.988 203.928ZM277.212 205.672C277.98 205.672 278.572 205.464 278.988 205.048C279.415 204.632 279.628 204.045 279.628 203.288V203.16C279.628 202.403 279.415 201.816 278.988 201.4C278.572 200.984 277.98 200.776 277.212 200.776C276.444 200.776 275.847 200.984 275.42 201.4C275.004 201.816 274.796 202.403 274.796 203.16V203.288C274.796 204.045 275.004 204.632 275.42 205.048C275.847 205.464 276.444 205.672 277.212 205.672Z" fill="white"/>
</g>
<g filter="url(#filter3_d_2587_2585)">
<path d="M46.0501 180L42.7381 168.832H44.1621L45.7461 174.416L46.9461 178.64H47.0261L48.2261 174.416L49.8101 168.832H51.1861L47.8741 180H46.0501ZM59.6759 180C59.1745 180 58.8172 179.872 58.6039 179.616C58.3905 179.36 58.2572 179.04 58.2039 178.656H58.1239C57.9425 179.136 57.6492 179.515 57.2439 179.792C56.8492 180.059 56.3159 180.192 55.6439 180.192C54.7799 180.192 54.0919 179.968 53.5799 179.52C53.0679 179.072 52.8119 178.459 52.8119 177.68C52.8119 176.912 53.0892 176.32 53.6439 175.904C54.2092 175.488 55.1159 175.28 56.3639 175.28H58.1239V174.464C58.1239 173.856 57.9532 173.403 57.6119 173.104C57.2705 172.795 56.7852 172.64 56.1559 172.64C55.6012 172.64 55.1479 172.752 54.7959 172.976C54.4439 173.189 54.1612 173.483 53.9479 173.856L53.0839 173.216C53.1905 173.003 53.3345 172.795 53.5159 172.592C53.6972 172.389 53.9212 172.213 54.1879 172.064C54.4545 171.904 54.7585 171.781 55.0999 171.696C55.4412 171.6 55.8199 171.552 56.2359 171.552C57.2065 171.552 57.9745 171.797 58.5399 172.288C59.1159 172.779 59.4039 173.461 59.4039 174.336V178.88H60.5559V180H59.6759ZM55.8679 179.12C56.1985 179.12 56.4972 179.083 56.7639 179.008C57.0412 178.923 57.2812 178.816 57.4839 178.688C57.6865 178.549 57.8412 178.389 57.9479 178.208C58.0652 178.016 58.1239 177.813 58.1239 177.6V176.24H56.3639C55.5959 176.24 55.0359 176.347 54.6839 176.56C54.3319 176.773 54.1559 177.083 54.1559 177.488V177.824C54.1559 178.251 54.3052 178.576 54.6039 178.8C54.9132 179.013 55.3345 179.12 55.8679 179.12ZM62.9176 180V171.744H64.1976V173.088H64.2616C64.3469 172.885 64.4536 172.693 64.5816 172.512C64.7096 172.32 64.8643 172.155 65.0456 172.016C65.2376 171.877 65.4616 171.765 65.7176 171.68C65.9736 171.595 66.2723 171.552 66.6136 171.552C67.4776 171.552 68.1709 171.829 68.6936 172.384C69.2163 172.928 69.4776 173.701 69.4776 174.704V180H68.1976V174.928C68.1976 174.171 68.0323 173.611 67.7016 173.248C67.3709 172.875 66.8856 172.688 66.2456 172.688C65.9896 172.688 65.7389 172.72 65.4936 172.784C65.2483 172.848 65.0296 172.944 64.8376 173.072C64.6456 173.2 64.4909 173.365 64.3736 173.568C64.2563 173.771 64.1976 174.005 64.1976 174.272V180H62.9176ZM87.6411 178.512H87.5611C87.4651 178.725 87.3531 178.933 87.2251 179.136C87.0971 179.339 86.9318 179.52 86.7291 179.68C86.5371 179.829 86.3024 179.952 86.0251 180.048C85.7478 180.144 85.4171 180.192 85.0331 180.192C83.8171 180.192 82.9104 179.701 82.3131 178.72C81.7264 177.739 81.4331 176.331 81.4331 174.496C81.4331 172.576 81.7584 171.12 82.4091 170.128C83.0598 169.136 84.0624 168.64 85.4171 168.64C85.9398 168.64 86.3931 168.709 86.7771 168.848C87.1611 168.987 87.4864 169.173 87.7531 169.408C88.0304 169.643 88.2598 169.909 88.4411 170.208C88.6224 170.496 88.7718 170.789 88.8891 171.088L87.7371 171.616C87.6411 171.371 87.5291 171.141 87.4011 170.928C87.2838 170.704 87.1344 170.512 86.9531 170.352C86.7824 170.181 86.5744 170.048 86.3291 169.952C86.0838 169.856 85.7958 169.808 85.4651 169.808C84.5691 169.808 83.9078 170.144 83.4811 170.816C83.0651 171.488 82.8571 172.384 82.8571 173.504V175.232C82.8571 175.797 82.8998 176.315 82.9851 176.784C83.0704 177.243 83.2091 177.643 83.4011 177.984C83.6038 178.325 83.8598 178.592 84.1691 178.784C84.4891 178.965 84.8784 179.056 85.3371 179.056C86.0624 179.056 86.6278 178.837 87.0331 178.4C87.4384 177.963 87.6411 177.397 87.6411 176.704V175.552H85.2891V174.48H88.8891V180H87.6411V178.512ZM94.9309 180.192C94.3549 180.192 93.8322 180.091 93.3629 179.888C92.9042 179.685 92.5095 179.397 92.1789 179.024C91.8589 178.64 91.6135 178.187 91.4429 177.664C91.2722 177.131 91.1869 176.533 91.1869 175.872C91.1869 175.221 91.2722 174.629 91.4429 174.096C91.6135 173.563 91.8589 173.109 92.1789 172.736C92.5095 172.352 92.9042 172.059 93.3629 171.856C93.8322 171.653 94.3549 171.552 94.9309 171.552C95.5069 171.552 96.0242 171.653 96.4829 171.856C96.9522 172.059 97.3469 172.352 97.6669 172.736C97.9975 173.109 98.2482 173.563 98.4189 174.096C98.5895 174.629 98.6749 175.221 98.6749 175.872C98.6749 176.533 98.5895 177.131 98.4189 177.664C98.2482 178.187 97.9975 178.64 97.6669 179.024C97.3469 179.397 96.9522 179.685 96.4829 179.888C96.0242 180.091 95.5069 180.192 94.9309 180.192ZM94.9309 179.088C95.6455 179.088 96.2215 178.875 96.6589 178.448C97.0962 178.021 97.3149 177.36 97.3149 176.464V175.28C97.3149 174.384 97.0962 173.723 96.6589 173.296C96.2215 172.869 95.6455 172.656 94.9309 172.656C94.2162 172.656 93.6402 172.869 93.2029 173.296C92.7655 173.723 92.5469 174.384 92.5469 175.28V176.464C92.5469 177.36 92.7655 178.021 93.2029 178.448C93.6402 178.875 94.2162 179.088 94.9309 179.088ZM108.701 180.944C108.701 181.776 108.354 182.389 107.661 182.784C106.967 183.189 105.927 183.392 104.541 183.392C103.207 183.392 102.247 183.216 101.661 182.864C101.085 182.512 100.797 182.005 100.797 181.344C100.797 180.896 100.914 180.549 101.149 180.304C101.383 180.059 101.714 179.877 102.141 179.76V179.568C101.906 179.451 101.725 179.301 101.597 179.12C101.469 178.939 101.405 178.709 101.405 178.432C101.405 178.005 101.543 177.685 101.821 177.472C102.109 177.259 102.466 177.099 102.893 176.992V176.928C102.381 176.704 101.981 176.373 101.693 175.936C101.415 175.499 101.277 174.987 101.277 174.4C101.277 173.984 101.351 173.6 101.501 173.248C101.65 172.896 101.863 172.597 102.141 172.352C102.429 172.096 102.77 171.899 103.165 171.76C103.559 171.621 103.997 171.552 104.477 171.552C105.095 171.552 105.639 171.664 106.109 171.888V171.744C106.109 171.424 106.183 171.157 106.333 170.944C106.482 170.731 106.738 170.624 107.101 170.624H108.621V171.744H106.765V172.304C107.063 172.56 107.293 172.864 107.453 173.216C107.613 173.568 107.693 173.963 107.693 174.4C107.693 174.816 107.613 175.2 107.453 175.552C107.303 175.904 107.09 176.208 106.813 176.464C106.535 176.709 106.194 176.901 105.789 177.04C105.394 177.179 104.957 177.248 104.477 177.248C104.338 177.248 104.205 177.243 104.077 177.232C103.949 177.221 103.821 177.205 103.693 177.184C103.565 177.205 103.431 177.243 103.293 177.296C103.154 177.339 103.026 177.403 102.909 177.488C102.791 177.563 102.695 177.653 102.621 177.76C102.546 177.867 102.509 177.989 102.509 178.128C102.509 178.373 102.631 178.539 102.877 178.624C103.122 178.699 103.442 178.736 103.837 178.736H105.661C106.727 178.736 107.501 178.939 107.981 179.344C108.461 179.739 108.701 180.272 108.701 180.944ZM107.501 181.008C107.501 180.677 107.367 180.411 107.101 180.208C106.834 180.016 106.37 179.92 105.709 179.92H102.845C102.29 180.144 102.013 180.517 102.013 181.04C102.013 181.403 102.157 181.712 102.445 181.968C102.733 182.235 103.213 182.368 103.885 182.368H105.133C105.879 182.368 106.461 182.251 106.877 182.016C107.293 181.792 107.501 181.456 107.501 181.008ZM104.477 176.256C105.117 176.256 105.586 176.107 105.885 175.808C106.194 175.509 106.349 175.115 106.349 174.624V174.16C106.349 173.669 106.194 173.28 105.885 172.992C105.586 172.693 105.117 172.544 104.477 172.544C103.837 172.544 103.367 172.693 103.069 172.992C102.77 173.28 102.621 173.669 102.621 174.16V174.624C102.621 175.115 102.77 175.509 103.069 175.808C103.367 176.107 103.837 176.256 104.477 176.256ZM110.886 168.16H112.166V173.088H112.23C112.316 172.885 112.422 172.693 112.55 172.512C112.678 172.32 112.833 172.155 113.014 172.016C113.206 171.877 113.43 171.765 113.686 171.68C113.942 171.595 114.241 171.552 114.582 171.552C115.446 171.552 116.14 171.829 116.662 172.384C117.185 172.928 117.446 173.701 117.446 174.704V180H116.166V174.928C116.166 174.171 116.001 173.611 115.67 173.248C115.34 172.875 114.854 172.688 114.214 172.688C113.958 172.688 113.708 172.72 113.462 172.784C113.217 172.848 112.998 172.944 112.806 173.072C112.614 173.2 112.46 173.365 112.342 173.568C112.225 173.771 112.166 174.005 112.166 174.272V180H110.886V168.16Z" fill="white"/>
</g>
<g opacity="0.9" filter="url(#filter4_d_2587_2585)">
<path d="M48.3061 71.24C47.5274 71.24 46.8181 71.112 46.1781 70.856C45.5381 70.6 44.9888 70.2267 44.5301 69.736C44.0714 69.2453 43.7141 68.6427 43.4581 67.928C43.2128 67.2027 43.0901 66.376 43.0901 65.448C43.0901 64.52 43.2288 63.6987 43.5061 62.984C43.7941 62.2587 44.1781 61.6507 44.6581 61.16C45.1381 60.6693 45.6981 60.296 46.3381 60.04C46.9781 59.784 47.6608 59.656 48.3861 59.656C48.8448 59.656 49.2554 59.688 49.6181 59.752C49.9914 59.816 50.3114 59.8907 50.5781 59.976C50.8554 60.0613 51.0794 60.1467 51.2501 60.232C51.4208 60.3173 51.5381 60.3813 51.6021 60.424L51.1541 61.704C51.0581 61.64 50.9194 61.5707 50.7381 61.496C50.5568 61.4213 50.3488 61.3467 50.1141 61.272C49.8901 61.1973 49.6394 61.1387 49.3621 61.096C49.0954 61.0427 48.8234 61.016 48.5461 61.016C47.9594 61.016 47.4314 61.1173 46.9621 61.32C46.4928 61.5227 46.0928 61.816 45.7621 62.2C45.4314 62.584 45.1754 63.0533 44.9941 63.608C44.8234 64.152 44.7381 64.7653 44.7381 65.448C44.7381 66.1093 44.8128 66.712 44.9621 67.256C45.1221 67.8 45.3568 68.2693 45.6661 68.664C45.9754 69.048 46.3594 69.3467 46.8181 69.56C47.2874 69.7733 47.8314 69.88 48.4501 69.88C49.1648 69.88 49.7568 69.8053 50.2261 69.656C50.6954 69.5067 51.0474 69.3733 51.2821 69.256L51.6821 70.536C51.6074 70.5893 51.4741 70.6587 51.2821 70.744C51.0901 70.8187 50.8501 70.8933 50.5621 70.968C50.2741 71.0427 49.9381 71.1067 49.5541 71.16C49.1701 71.2133 48.7541 71.24 48.3061 71.24ZM56.436 62.504C56.564 62.504 56.708 62.5147 56.868 62.536C57.0387 62.5467 57.204 62.568 57.364 62.6C57.524 62.6213 57.668 62.648 57.796 62.68C57.9347 62.7013 58.036 62.7227 58.1 62.744L57.844 64.04C57.7267 63.9973 57.5293 63.9493 57.252 63.896C56.9853 63.832 56.6387 63.8 56.212 63.8C55.9347 63.8 55.6573 63.832 55.38 63.896C55.1133 63.9493 54.9373 63.9867 54.852 64.008V71H53.364V63.032C53.716 62.904 54.1533 62.7867 54.676 62.68C55.1987 62.5627 55.7853 62.504 56.436 62.504ZM59.0719 66.856C59.0719 66.12 59.1785 65.48 59.3919 64.936C59.6052 64.3813 59.8879 63.9227 60.2399 63.56C60.5919 63.1973 60.9972 62.9253 61.4559 62.744C61.9145 62.5627 62.3839 62.472 62.8639 62.472C63.9839 62.472 64.8425 62.824 65.4399 63.528C66.0372 64.2213 66.3359 65.2827 66.3359 66.712C66.3359 66.776 66.3359 66.8613 66.3359 66.968C66.3359 67.064 66.3305 67.1547 66.3199 67.24H60.6239C60.6879 68.104 60.9385 68.76 61.3759 69.208C61.8132 69.656 62.4959 69.88 63.4239 69.88C63.9465 69.88 64.3839 69.8373 64.7359 69.752C65.0985 69.656 65.3705 69.5653 65.5519 69.48L65.7599 70.728C65.5785 70.824 65.2585 70.9253 64.7999 71.032C64.3519 71.1387 63.8399 71.192 63.2639 71.192C62.5385 71.192 61.9092 71.0853 61.3759 70.872C60.8532 70.648 60.4212 70.344 60.0799 69.96C59.7385 69.576 59.4825 69.1227 59.3119 68.6C59.1519 68.0667 59.0719 67.4853 59.0719 66.856ZM64.7839 66.04C64.7945 65.368 64.6239 64.8187 64.2719 64.392C63.9305 63.9547 63.4559 63.736 62.8479 63.736C62.5065 63.736 62.2025 63.8053 61.9359 63.944C61.6799 64.072 61.4612 64.2427 61.2799 64.456C61.0985 64.6693 60.9545 64.9147 60.8479 65.192C60.7519 65.4693 60.6879 65.752 60.6559 66.04H64.7839ZM73.8494 64.44C73.668 64.2907 73.4067 64.1467 73.0654 64.008C72.724 63.8693 72.3507 63.8 71.9454 63.8C71.5187 63.8 71.1507 63.88 70.8414 64.04C70.5427 64.1893 70.2974 64.4027 70.1054 64.68C69.9134 64.9467 69.7747 65.2667 69.6894 65.64C69.604 66.0133 69.5614 66.4133 69.5614 66.84C69.5614 67.8107 69.8014 68.5627 70.2814 69.096C70.7614 69.6187 71.4014 69.88 72.2014 69.88C72.6067 69.88 72.9427 69.864 73.2094 69.832C73.4867 69.7893 73.7 69.7467 73.8494 69.704V64.44ZM73.8494 58.84L75.3374 58.584V70.76C74.996 70.856 74.5587 70.952 74.0254 71.048C73.492 71.144 72.8787 71.192 72.1854 71.192C71.5454 71.192 70.9694 71.0907 70.4574 70.888C69.9454 70.6853 69.508 70.3973 69.1454 70.024C68.7827 69.6507 68.5 69.1973 68.2974 68.664C68.1054 68.12 68.0094 67.512 68.0094 66.84C68.0094 66.2 68.0894 65.6133 68.2494 65.08C68.42 64.5467 68.6654 64.088 68.9854 63.704C69.3054 63.32 69.6947 63.0213 70.1534 62.808C70.6227 62.5947 71.156 62.488 71.7534 62.488C72.2334 62.488 72.6547 62.552 73.0174 62.68C73.3907 62.808 73.668 62.9307 73.8494 63.048V58.84ZM79.3832 71H77.8952V62.68H79.3832V71ZM78.6312 61.176C78.3646 61.176 78.1352 61.0907 77.9432 60.92C77.7619 60.7387 77.6712 60.4987 77.6712 60.2C77.6712 59.9013 77.7619 59.6667 77.9432 59.496C78.1352 59.3147 78.3646 59.224 78.6312 59.224C78.8979 59.224 79.1219 59.3147 79.3032 59.496C79.4952 59.6667 79.5912 59.9013 79.5912 60.2C79.5912 60.4987 79.4952 60.7387 79.3032 60.92C79.1219 61.0907 78.8979 61.176 78.6312 61.176ZM83.3341 62.68H86.4861V63.928H83.3341V67.768C83.3341 68.184 83.3661 68.5307 83.4301 68.808C83.4941 69.0747 83.5901 69.288 83.7181 69.448C83.8461 69.5973 84.0061 69.704 84.1981 69.768C84.3901 69.832 84.6141 69.864 84.8701 69.864C85.3181 69.864 85.6754 69.816 85.9421 69.72C86.2194 69.6133 86.4114 69.5387 86.5181 69.496L86.8061 70.728C86.6568 70.8027 86.3954 70.8933 86.0221 71C85.6488 71.1173 85.2221 71.176 84.7421 71.176C84.1768 71.176 83.7074 71.1067 83.3341 70.968C82.9714 70.8187 82.6781 70.6 82.4541 70.312C82.2301 70.024 82.0701 69.672 81.9741 69.256C81.8888 68.8293 81.8461 68.3387 81.8461 67.784V60.36L83.3341 60.104V62.68Z" fill="white"/>
</g>
<g clip-path="url(#clip0_2587_2585)" filter="url(#filter5_d_2587_2585)">
<circle cx="367.225" cy="78.4252" r="19.0625" fill="#EB001B"/>
<circle cx="390.1" cy="78.4252" r="19.0625" fill="#F79E1B"/>
<path fill-rule="evenodd" clip-rule="evenodd" d="M378.662 93.6752C383.924 90.6312 387.465 84.9417 387.465 78.4252C387.465 71.9088 383.924 66.2193 378.662 63.1752C373.4 66.2193 369.859 71.9088 369.859 78.4252C369.859 84.9417 373.4 90.6312 378.662 93.6752Z" fill="#FF5F00"/>
</g>
<defs>
<filter id="filter0_d_2587_2585" x="0.162109" y="0" width="485" height="293" filterUnits="userSpaceOnUse" color-interpolation-filters="sRGB">
<feFlood flood-opacity="0" result="BackgroundImageFix"/>
<feColorMatrix in="SourceAlpha" type="matrix" values="0 0 0 0 0 0 0 0 0 0 0 0 0 0 0 0 0 0 127 0" result="hardAlpha"/>
<feOffset dx="17" dy="11"/>
<feGaussianBlur stdDeviation="14"/>
<feComposite in2="hardAlpha" operator="out"/>
<feColorMatrix type="matrix" values="0 0 0 0 0 0 0 0 0 0 0 0 0 0 0 0 0 0 0.13 0"/>
<feBlend mode="normal" in2="BackgroundImageFix" result="effect1_dropShadow_2587_2585"/>
<feBlend mode="normal" in="SourceGraphic" in2="effect1_dropShadow_2587_2585" result="shape"/>
</filter>
<filter id="filter1_d_2587_2585" x="0" y="0" width="363.459" height="293" filterUnits="userSpaceOnUse" color-interpolation-filters="sRGB">
<feFlood flood-opacity="0" result="BackgroundImageFix"/>
<feColorMatrix in="SourceAlpha" type="matrix" values="0 0 0 0 0 0 0 0 0 0 0 0 0 0 0 0 0 0 127 0" result="hardAlpha"/>
<feOffset dx="17" dy="11"/>
<feGaussianBlur stdDeviation="14"/>
<feComposite in2="hardAlpha" operator="out"/>
<feColorMatrix type="matrix" values="0 0 0 0 0 0 0 0 0 0 0 0 0 0 0 0 0 0 0.13 0"/>
<feBlend mode="normal" in2="BackgroundImageFix" result="effect1_dropShadow_2587_2585"/>
<feBlend mode="normal" in="SourceGraphic" in2="effect1_dropShadow_2587_2585" result="shape"/>
</filter>
<filter id="filter2_d_2587_2585" x="32.2021" y="182.64" width="293.786" height="67.552" filterUnits="userSpaceOnUse" color-interpolation-filters="sRGB">
<feFlood flood-opacity="0" result="BackgroundImageFix"/>
<feColorMatrix in="SourceAlpha" type="matrix" values="0 0 0 0 0 0 0 0 0 0 0 0 0 0 0 0 0 0 127 0" result="hardAlpha"/>
<feOffset dx="17" dy="11"/>
<feGaussianBlur stdDeviation="14"/>
<feComposite in2="hardAlpha" operator="out"/>
<feColorMatrix type="matrix" values="0 0 0 0 0 0 0 0 0 0 0 0 0 0 0 0 0 0 0.13 0"/>
<feBlend mode="normal" in2="BackgroundImageFix" result="effect1_dropShadow_2587_2585"/>
<feBlend mode="normal" in="SourceGraphic" in2="effect1_dropShadow_2587_2585" result="shape"/>
</filter>
<filter id="filter3_d_2587_2585" x="31.738" y="151.16" width="130.708" height="71.232" filterUnits="userSpaceOnUse" color-interpolation-filters="sRGB">
<feFlood flood-opacity="0" result="BackgroundImageFix"/>
<feColorMatrix in="SourceAlpha" type="matrix" values="0 0 0 0 0 0 0 0 0 0 0 0 0 0 0 0 0 0 127 0" result="hardAlpha"/>
<feOffset dx="17" dy="11"/>
<feGaussianBlur stdDeviation="14"/>
<feComposite in2="hardAlpha" operator="out"/>
<feColorMatrix type="matrix" values="0 0 0 0 0 0 0 0 0 0 0 0 0 0 0 0 0 0 0.13 0"/>
<feBlend mode="normal" in2="BackgroundImageFix" result="effect1_dropShadow_2587_2585"/>
<feBlend mode="normal" in="SourceGraphic" in2="effect1_dropShadow_2587_2585" result="shape"/>
</filter>
<filter id="filter4_d_2587_2585" x="32.0901" y="41.584" width="99.7161" height="68.656" filterUnits="userSpaceOnUse" color-interpolation-filters="sRGB">
<feFlood flood-opacity="0" result="BackgroundImageFix"/>
<feColorMatrix in="SourceAlpha" type="matrix" values="0 0 0 0 0 0 0 0 0 0 0 0 0 0 0 0 0 0 127 0" result="hardAlpha"/>
<feOffset dx="17" dy="11"/>
<feGaussianBlur stdDeviation="14"/>
<feComposite in2="hardAlpha" operator="out"/>
<feColorMatrix type="matrix" values="0 0 0 0 0 0 0 0 0 0 0 0 0 0 0 0 0 0 0.13 0"/>
<feBlend mode="normal" in2="BackgroundImageFix" result="effect1_dropShadow_2587_2585"/>
<feBlend mode="normal" in="SourceGraphic" in2="effect1_dropShadow_2587_2585" result="shape"/>
</filter>
<filter id="filter5_d_2587_2585" x="337.162" y="31" width="117" height="117" filterUnits="userSpaceOnUse" color-interpolation-filters="sRGB">
<feFlood flood-opacity="0" result="BackgroundImageFix"/>
<feColorMatrix in="SourceAlpha" type="matrix" values="0 0 0 0 0 0 0 0 0 0 0 0 0 0 0 0 0 0 127 0" result="hardAlpha"/>
<feOffset dx="17" dy="11"/>
<feGaussianBlur stdDeviation="14"/>
<feComposite in2="hardAlpha" operator="out"/>
<feColorMatrix type="matrix" values="0 0 0 0 0 0 0 0 0 0 0 0 0 0 0 0 0 0 0.13 0"/>
<feBlend mode="normal" in2="BackgroundImageFix" result="effect1_dropShadow_2587_2585"/>
<feBlend mode="normal" in="SourceGraphic" in2="effect1_dropShadow_2587_2585" result="shape"/>
</filter>
<linearGradient id="paint0_linear_2587_2585" x1="-50.3065" y1="-8.62163" x2="500.44" y2="280.091" gradientUnits="userSpaceOnUse">
<stop offset="0.122247" stop-color="#064A7D"/>
<stop offset="0.878935" stop-color="#642401"/>
</linearGradient>
<clipPath id="clip0_2587_2585">
<rect width="61" height="61" fill="white" transform="translate(348.162 48)"/>
</clipPath>
</defs>
</svg>
