<svg width="55" height="55" viewBox="0 0 55 55" fill="none" xmlns="http://www.w3.org/2000/svg">
<path d="M52.7083 13.75C52.7072 13.5141 52.6605 13.2807 52.5708 13.0625C52.5738 13.0091 52.5738 12.9555 52.5708 12.9021L47.9875 3.7354C47.8163 3.30535 47.5188 2.93723 47.1343 2.67952C46.7498 2.42181 46.2962 2.28659 45.8333 2.29165H6.87501C6.35151 2.2764 5.83858 2.44092 5.42162 2.75781C5.00466 3.0747 4.70881 3.52485 4.58334 4.03332L2.29167 13.2C2.28038 13.276 2.28038 13.3532 2.29167 13.4292C2.28095 13.5358 2.28095 13.6433 2.29167 13.75V50.4167C2.29167 51.0244 2.53312 51.6073 2.96289 52.0371C3.39266 52.4669 3.97555 52.7083 4.58334 52.7083H50.4167C51.0245 52.7083 51.6074 52.4669 52.0371 52.0371C52.4669 51.6073 52.7083 51.0244 52.7083 50.4167V13.75ZM8.66251 6.87499H44.4125L46.7042 11.4583H7.51667L8.66251 6.87499ZM48.125 48.125H6.87501V16.0417H48.125V48.125Z" fill="#0E505C"/>
<circle cx="27.5003" cy="32.0833" r="11.4583" fill="#30B95F"/>
<path d="M25.7817 34.4724L23.3926 32.0833L22.5791 32.8911L25.7817 36.0937L32.6567 29.2187L31.8489 28.4109L25.7817 34.4724Z" fill="white"/>
</svg>
