<svg width="50" height="50" viewBox="0 0 50 50" fill="none" xmlns="http://www.w3.org/2000/svg">
<circle cx="25" cy="25" r="25" fill="#0E505C"/>
<g clip-path="url(#clip0_109_3368)">
<path d="M35.0822 19.5C35.0817 19.4057 35.063 19.3123 35.0272 19.225C35.0283 19.2037 35.0283 19.1822 35.0272 19.1609L33.1938 15.4942C33.1253 15.3222 33.0063 15.1749 32.8525 15.0719C32.6987 14.9688 32.5173 14.9147 32.3322 14.9167H16.7488C16.5394 14.9106 16.3343 14.9764 16.1675 15.1032C16.0007 15.2299 15.8824 15.41 15.8322 15.6134L14.9155 19.28C14.911 19.3104 14.911 19.3413 14.9155 19.3717C14.9112 19.4144 14.9112 19.4574 14.9155 19.5V34.1667C14.9155 34.4098 15.0121 34.643 15.184 34.8149C15.3559 34.9868 15.589 35.0834 15.8322 35.0834H34.1655C34.4086 35.0834 34.6418 34.9868 34.8137 34.8149C34.9856 34.643 35.0822 34.4098 35.0822 34.1667V19.5ZM17.4638 16.75H31.7638L32.6805 18.5834H17.0055L17.4638 16.75ZM33.2488 33.25H16.7488V20.4167H33.2488V33.25Z" fill="white"/>
<path d="M29.6977 25.8474V27.4967H20.2383V25.8474H29.6977ZM25.8495 21.8191V31.8662H24.096V21.8191H25.8495Z" fill="white"/>
</g>
<defs>
<clipPath id="clip0_109_3368">
<rect width="22" height="22" fill="white" transform="translate(14 14)"/>
</clipPath>
</defs>
</svg>
