<svg width="50" height="50" viewBox="0 0 50 50" fill="none" xmlns="http://www.w3.org/2000/svg">
<circle cx="25" cy="25" r="25" fill="#F5BD63"/>
<path d="M18.7705 19.5833C18.555 19.5833 18.3484 19.6689 18.196 19.8213C18.0436 19.9737 17.958 20.1803 17.958 20.3958C17.958 20.6113 18.0436 20.818 18.196 20.9704C18.3484 21.1227 18.555 21.2083 18.7705 21.2083H27.9788C28.1943 21.2083 28.401 21.1227 28.5534 20.9704C28.7057 20.818 28.7913 20.6113 28.7913 20.3958C28.7913 20.1803 28.7057 19.9737 28.5534 19.8213C28.401 19.6689 28.1943 19.5833 27.9788 19.5833H18.7705ZM17.958 24.7292C17.958 24.5137 18.0436 24.307 18.196 24.1546C18.3484 24.0023 18.555 23.9167 18.7705 23.9167H23.6455C23.861 23.9167 24.0677 24.0023 24.22 24.1546C24.3724 24.307 24.458 24.5137 24.458 24.7292C24.458 24.9446 24.3724 25.1513 24.22 25.3037C24.0677 25.4561 23.861 25.5417 23.6455 25.5417H18.7705C18.555 25.5417 18.3484 25.4561 18.196 25.3037C18.0436 25.1513 17.958 24.9446 17.958 24.7292ZM35.5947 29.6367C35.6745 29.5623 35.7385 29.4726 35.7829 29.3729C35.8273 29.2732 35.8512 29.1657 35.8531 29.0566C35.8551 28.9475 35.835 28.8391 35.7941 28.7379C35.7533 28.6368 35.6925 28.5449 35.6153 28.4677C35.5381 28.3905 35.4462 28.3297 35.3451 28.2889C35.2439 28.248 35.1355 28.2279 35.0264 28.2299C34.9173 28.2318 34.8098 28.2557 34.7101 28.3001C34.6104 28.3445 34.5207 28.4085 34.4463 28.4883L29.0622 33.8725L26.928 31.7383C26.8536 31.6585 26.7639 31.5945 26.6643 31.5501C26.5646 31.5057 26.457 31.4818 26.3479 31.4799C26.2388 31.4779 26.1304 31.498 26.0293 31.5389C25.9281 31.5797 25.8362 31.6405 25.759 31.7177C25.6819 31.7949 25.6211 31.8868 25.5802 31.9879C25.5393 32.0891 25.5193 32.1975 25.5212 32.3066C25.5231 32.4157 25.547 32.5232 25.5914 32.6229C25.6358 32.7226 25.6998 32.8123 25.7797 32.8867L28.488 35.595C28.6404 35.7471 28.8469 35.8326 29.0622 35.8326C29.2775 35.8326 29.484 35.7471 29.6363 35.595L35.5947 29.6367Z" fill="white"/>
<path fill-rule="evenodd" clip-rule="evenodd" d="M19.6761 14.1666H16.0628C15.56 14.1666 15.0778 14.3664 14.7223 14.7219C14.3667 15.0775 14.167 15.5597 14.167 16.0625V33.9375C14.167 34.984 15.0163 35.8333 16.0628 35.8333H23.6462C23.8616 35.8333 24.0683 35.7477 24.2207 35.5953C24.3731 35.443 24.4587 35.2363 24.4587 35.0208C24.4587 34.8053 24.3731 34.5987 24.2207 34.4463C24.0683 34.2939 23.8616 34.2083 23.6462 34.2083H16.0628C15.991 34.2083 15.9221 34.1798 15.8713 34.129C15.8205 34.0782 15.792 34.0093 15.792 33.9375V16.0625C15.792 15.9906 15.8205 15.9218 15.8713 15.871C15.9221 15.8202 15.991 15.7916 16.0628 15.7916H19.6061C19.5914 15.7036 19.5837 15.6131 19.5837 15.5208V14.7083C19.5837 14.5184 19.6162 14.3361 19.6761 14.1666ZM27.6862 15.7916C27.701 15.7036 27.7087 15.6131 27.7087 15.5208V14.7083C27.7087 14.5184 27.6761 14.3361 27.6162 14.1666H30.6878C31.1906 14.1666 31.6728 14.3664 32.0284 14.7219C32.3839 15.0775 32.5837 15.5597 32.5837 16.0625V26.8958C32.5837 27.1113 32.4981 27.318 32.3457 27.4703C32.1933 27.6227 31.9866 27.7083 31.7712 27.7083C31.5557 27.7083 31.349 27.6227 31.1966 27.4703C31.0443 27.318 30.9587 27.1113 30.9587 26.8958V16.0625C30.9587 15.9906 30.9301 15.9218 30.8793 15.871C30.8285 15.8202 30.7597 15.7916 30.6878 15.7916H27.6862Z" fill="white"/>
<path d="M26.083 13.0833H21.208C20.3106 13.0833 19.583 13.8109 19.583 14.7083V15.5208C19.583 16.4183 20.3106 17.1458 21.208 17.1458H26.083C26.9805 17.1458 27.708 16.4183 27.708 15.5208V14.7083C27.708 13.8109 26.9805 13.0833 26.083 13.0833Z" stroke="white" stroke-width="1.625" stroke-linecap="round" stroke-linejoin="round"/>
</svg>
